<svg xmlns="http://www.w3.org/2000/svg" xmlns:xlink="http://www.w3.org/1999/xlink" width="768" height="480" viewBox="0 0 576 360"><defs><symbol overflow="visible" id="h"><path d="M4.629-1.836l1 .121c-.16.59-.453 1.043-.879 1.363-.426.32-.969.48-1.629.48-.84 0-1.504-.253-1.988-.769C.64-1.152.398-1.875.403-2.805c-.005-.957.242-1.699.742-2.23.492-.527 1.132-.793 1.921-.797.758.004 1.383.262 1.868.781.484.52.726 1.25.726 2.188 0 .058-.004.144-.004.258H1.402c.032.628.211 1.109.532 1.44.316.337.71.505 1.191.5.352.005.656-.089.906-.28.25-.184.45-.48.598-.89zM1.457-3.398h3.184c-.043-.48-.168-.84-.368-1.082a1.496 1.496 0 00-1.195-.56c-.45 0-.82.15-1.121.446-.305.297-.473.696-.5 1.196zm0 0"/></symbol><symbol overflow="visible" id="a"><path d="M.883 0v-7.875h1.039v3.234h4.094v-3.234h1.043V0H6.016v-3.71H1.922V0zm0 0"/></symbol><symbol overflow="visible" id="c"><path d="M.34-1.703l.953-.149c.05.383.2.68.45.883.241.207.585.309 1.03.305.438.004.766-.086.985-.27.21-.18.32-.394.324-.64a.61.61 0 00-.285-.516c-.133-.082-.465-.191-.988-.328-.711-.176-1.204-.332-1.477-.465a1.365 1.365 0 01-.621-.539A1.372 1.372 0 01.5-4.187a1.425 1.425 0 01.172-.708 1.62 1.62 0 01.476-.543c.149-.109.352-.199.614-.277.258-.074.539-.113.84-.117.445.004.836.066 1.175.195.336.13.586.305.75.524.16.222.27.515.332.879l-.945.132a1.052 1.052 0 00-.371-.687c-.207-.164-.5-.25-.875-.25-.445 0-.762.074-.95.223-.195.148-.288.32-.284.515a.485.485 0 00.117.336.827.827 0 00.37.258c.095.039.38.121.856.246.684.188 1.16.34 1.43.453.27.117.48.285.637.504.152.227.23.5.23.828 0 .324-.094.63-.281.91-.188.286-.461.504-.813.66-.359.157-.757.235-1.203.235-.742 0-1.308-.152-1.695-.461C.692-.641.445-1.098.34-1.703zm0 0"/></symbol><symbol overflow="visible" id="e"><path d="M.73-6.762v-1.113h.965v1.113zM.73 0v-5.703h.965V0zm0 0"/></symbol><symbol overflow="visible" id="f"><path d="M.703 0v-7.875h.969V0zm0 0"/></symbol><symbol overflow="visible" id="g"><path d="M.727 0v-5.703h.867v.808c.418-.62 1.023-.933 1.816-.937.344.004.656.066.945.187.286.125.504.286.649.485.14.203.238.441.3.715.032.18.051.492.055.937V0h-.964v-3.469c0-.394-.04-.687-.114-.883a.99.99 0 00-.402-.468 1.343 1.343 0 00-.672-.176c-.414.004-.77.137-1.066.394-.305.266-.454.758-.45 1.485V0zm0 0"/></symbol><symbol overflow="visible" id="b"><path d="M4.445-.703c-.36.305-.703.52-1.03.644A3.002 3.002 0 012.347.13c-.63 0-1.11-.152-1.446-.457C.566-.633.398-1.023.398-1.504c0-.277.063-.531.188-.766.125-.226.289-.414.5-.554a2.26 2.26 0 01.695-.317 7.27 7.27 0 01.86-.148c.777-.086 1.351-.2 1.726-.332 0-.133.004-.215.004-.25 0-.395-.094-.672-.273-.832-.25-.215-.618-.324-1.102-.328-.457.004-.793.082-1.008.238-.218.16-.379.441-.48.844l-.946-.13c.086-.401.227-.726.426-.976.196-.246.48-.437.856-.574.37-.133.8-.2 1.293-.203.484.004.883.059 1.187.172.305.117.528.262.672.433.14.172.242.391.3.657.032.164.048.46.048.89v1.29c0 .898.02 1.468.062 1.706.04.239.121.465.242.684H4.641a1.977 1.977 0 01-.196-.703zm-.078-2.16c-.355.144-.879.265-1.578.367-.398.058-.684.125-.848.195a.843.843 0 00-.379.313.83.83 0 00-.132.457c0 .261.097.476.293.644.195.176.48.262.855.258.371.004.7-.078.992-.242.29-.16.504-.383.64-.672.103-.21.153-.535.157-.965zm0 0"/></symbol><symbol overflow="visible" id="i"><path d="M2.535-1.938c-.004-.128-.004-.226-.004-.292 0-.375.051-.704.16-.98.075-.208.204-.415.38-.63.128-.148.359-.375.695-.672.332-.297.55-.531.652-.707.102-.176.152-.367.152-.578 0-.371-.148-.703-.441-.988a1.504 1.504 0 00-1.078-.43c-.414.004-.758.133-1.031.387-.278.262-.458.664-.543 1.21l-.993-.116c.086-.73.352-1.293.797-1.688.442-.387 1.028-.582 1.754-.586.766.004 1.38.215 1.84.63.457.421.684.925.688 1.519a1.986 1.986 0 01-.243.953c-.16.293-.476.644-.941 1.054-.32.282-.527.485-.621.618a1.233 1.233 0 00-.215.457c-.047.172-.074.453-.078.84zM2.477 0v-1.102h1.101V0zm0 0"/></symbol><symbol overflow="visible" id="j"><path d="M.672 0v-6.3h.855l3.309 4.948V-6.3h.797V0h-.856L1.47-4.95V0zm0 0"/></symbol><symbol overflow="visible" id="k"><path d="M.293-2.281c0-.844.234-1.473.703-1.88.39-.335.867-.503 1.438-.507.625.004 1.136.211 1.535.617.394.414.594.98.597 1.703-.003.59-.09 1.051-.265 1.387a1.9 1.9 0 01-.766.785c-.34.184-.707.274-1.101.278C1.789.098 1.274-.102.883-.512c-.395-.406-.59-.996-.59-1.77zm.793 0c-.004.586.125 1.023.383 1.312.254.297.574.442.965.438.378.004.699-.14.957-.438.254-.289.382-.738.382-1.34 0-.562-.128-.988-.386-1.28a1.248 1.248 0 00-.953-.438c-.391.004-.711.148-.965.433-.258.293-.387.73-.383 1.313zm0 0"/></symbol><symbol overflow="visible" id="l"><path d="M2.453 0v-2.668L.027-6.301H1.04l1.242 1.903c.227.355.442.71.64 1.062.188-.324.419-.695.688-1.11L4.83-6.3H5.8L3.289-2.668V0zm0 0"/></symbol><symbol overflow="visible" id="m"><path d="M3.703-1.469l.8.098c-.128.469-.362.832-.702 1.086-.34.258-.774.383-1.305.387-.668-.004-1.2-.204-1.59-.614-.394-.406-.59-.984-.586-1.73-.004-.766.196-1.363.594-1.79.395-.421.906-.632 1.54-.636.605.004 1.1.211 1.491.625.383.414.578 1 .582 1.754-.004.047-.004.113-.004.203H1.121c.024.504.168.89.426 1.156.254.27.57.403.953.399.281.004.523-.07.727-.223.199-.148.359-.387.476-.715zm-2.539-1.25h2.547c-.04-.383-.133-.668-.29-.863-.25-.297-.57-.45-.96-.45a1.22 1.22 0 00-.895.36c-.246.238-.379.555-.402.953zm0 0"/></symbol><symbol overflow="visible" id="n"><path d="M.27-1.363l.765-.121c.043.312.164.546.36.707.195.168.468.25.824.246.351.004.613-.07.789-.219a.67.67 0 00.258-.508.498.498 0 00-.227-.414c-.11-.062-.375-.152-.793-.262-.57-.14-.96-.261-1.18-.37a1.114 1.114 0 01-.668-1.048c0-.203.047-.39.141-.562.094-.172.219-.316.379-.434.121-.086.285-.16.492-.226.207-.059.43-.09.668-.094.356.004.672.055.945.156.27.106.47.246.598.422.129.176.219.41.27.703l-.758.106a.84.84 0 00-.301-.551c-.168-.133-.398-.2-.695-.2-.36 0-.614.06-.762.177-.152.117-.227.257-.227.414a.42.42 0 00.094.27.65.65 0 00.297.206c.074.031.3.098.684.2.543.148.925.269 1.144.359.215.094.383.23.508.406.121.18.184.398.188.66a1.341 1.341 0 01-.227.73 1.494 1.494 0 01-.652.528c-.29.121-.61.18-.961.184C1.625.098 1.172-.02.863-.266.551-.508.355-.875.27-1.363zm0 0"/></symbol></defs><path fill="#fff" d="M0 0h576v360H0z"/><path d="M29.738 321.73c0 4.739-7.113 4.739-7.113 0 0-4.742 7.113-4.742 7.113 0M29.738 305.602c0 4.742-7.113 4.742-7.113 0 0-4.739 7.113-4.739 7.113 0M29.738 289.477c0 4.742-7.113 4.742-7.113 0 0-4.743 7.113-4.743 7.113 0M29.738 273.352c0 4.738-7.113 4.738-7.113 0 0-4.743 7.113-4.743 7.113 0M29.738 257.223c0 4.742-7.113 4.742-7.113 0 0-4.739 7.113-4.739 7.113 0M29.738 241.098c0 4.738-7.113 4.738-7.113 0 0-4.743 7.113-4.743 7.113 0M29.738 224.969c0 4.742-7.113 4.742-7.113 0 0-4.739 7.113-4.739 7.113 0M29.738 208.844c0 4.738-7.113 4.738-7.113 0 0-4.742 7.113-4.742 7.113 0M29.738 192.715c0 4.742-7.113 4.742-7.113 0 0-4.738 7.113-4.738 7.113 0M29.738 176.59c0 4.738-7.113 4.738-7.113 0 0-4.742 7.113-4.742 7.113 0M29.738 160.46c0 4.743-7.113 4.743-7.113 0 0-4.737 7.113-4.737 7.113 0M29.738 144.336c0 4.738-7.113 4.738-7.113 0 0-4.742 7.113-4.742 7.113 0M29.738 128.207c0 4.742-7.113 4.742-7.113 0 0-4.738 7.113-4.738 7.113 0M29.738 112.082c0 4.738-7.113 4.738-7.113 0 0-4.742 7.113-4.742 7.113 0M29.738 95.953c0 4.742-7.113 4.742-7.113 0 0-4.738 7.113-4.738 7.113 0M29.738 79.828c0 4.738-7.113 4.738-7.113 0 0-4.742 7.113-4.742 7.113 0M29.738 63.7c0 4.741-7.113 4.741-7.113 0 0-4.74 7.113-4.74 7.113 0M29.738 47.574c0 4.742-7.113 4.742-7.113 0s7.113-4.742 7.113 0M29.738 31.45c0 4.738-7.113 4.738-7.113 0 0-4.743 7.113-4.743 7.113 0M29.738 15.32c0 4.742-7.113 4.742-7.113 0 0-4.738 7.113-4.738 7.113 0M40.422 321.73c0 4.739-7.11 4.739-7.11 0 0-4.742 7.11-4.742 7.11 0M40.422 305.602c0 4.742-7.11 4.742-7.11 0 0-4.739 7.11-4.739 7.11 0M40.422 289.477c0 4.742-7.11 4.742-7.11 0 0-4.743 7.11-4.743 7.11 0M40.422 273.352c0 4.738-7.11 4.738-7.11 0 0-4.743 7.11-4.743 7.11 0M40.422 257.223c0 4.742-7.11 4.742-7.11 0 0-4.739 7.11-4.739 7.11 0M40.422 241.098c0 4.738-7.11 4.738-7.11 0 0-4.743 7.11-4.743 7.11 0M40.422 224.969c0 4.742-7.11 4.742-7.11 0 0-4.739 7.11-4.739 7.11 0M40.422 208.844c0 4.738-7.11 4.738-7.11 0 0-4.742 7.11-4.742 7.11 0M40.422 192.715c0 4.742-7.11 4.742-7.11 0 0-4.738 7.11-4.738 7.11 0M40.422 176.59c0 4.738-7.11 4.738-7.11 0 0-4.742 7.11-4.742 7.11 0M40.422 160.46c0 4.743-7.11 4.743-7.11 0 0-4.737 7.11-4.737 7.11 0M40.422 144.336c0 4.738-7.11 4.738-7.11 0 0-4.742 7.11-4.742 7.11 0M40.422 128.207c0 4.742-7.11 4.742-7.11 0 0-4.738 7.11-4.738 7.11 0M40.422 112.082c0 4.738-7.11 4.738-7.11 0 0-4.742 7.11-4.742 7.11 0M40.422 95.953c0 4.742-7.11 4.742-7.11 0 0-4.738 7.11-4.738 7.11 0M40.422 79.828c0 4.738-7.11 4.738-7.11 0 0-4.742 7.11-4.742 7.11 0M40.422 63.7c0 4.741-7.11 4.741-7.11 0 0-4.74 7.11-4.74 7.11 0M40.422 47.574c0 4.742-7.11 4.742-7.11 0s7.11-4.742 7.11 0M40.422 31.45c0 4.738-7.11 4.738-7.11 0 0-4.743 7.11-4.743 7.11 0M40.422 15.32c0 4.742-7.11 4.742-7.11 0 0-4.738 7.11-4.738 7.11 0M51.11 321.73c0 4.739-7.11 4.739-7.11 0 0-4.742 7.11-4.742 7.11 0M51.11 305.602c0 4.742-7.11 4.742-7.11 0 0-4.739 7.11-4.739 7.11 0M51.11 289.477c0 4.742-7.11 4.742-7.11 0 0-4.743 7.11-4.743 7.11 0M51.11 273.352c0 4.738-7.11 4.738-7.11 0 0-4.743 7.11-4.743 7.11 0M51.11 257.223c0 4.742-7.11 4.742-7.11 0 0-4.739 7.11-4.739 7.11 0M51.11 241.098c0 4.738-7.11 4.738-7.11 0 0-4.743 7.11-4.743 7.11 0M51.11 224.969c0 4.742-7.11 4.742-7.11 0 0-4.739 7.11-4.739 7.11 0M51.11 208.844c0 4.738-7.11 4.738-7.11 0 0-4.742 7.11-4.742 7.11 0M51.11 192.715c0 4.742-7.11 4.742-7.11 0 0-4.738 7.11-4.738 7.11 0M51.11 176.59c0 4.738-7.11 4.738-7.11 0 0-4.742 7.11-4.742 7.11 0M51.11 160.46c0 4.743-7.11 4.743-7.11 0 0-4.737 7.11-4.737 7.11 0M51.11 144.336c0 4.738-7.11 4.738-7.11 0 0-4.742 7.11-4.742 7.11 0M51.11 128.207c0 4.742-7.11 4.742-7.11 0 0-4.738 7.11-4.738 7.11 0M51.11 112.082c0 4.738-7.11 4.738-7.11 0 0-4.742 7.11-4.742 7.11 0M51.11 95.953c0 4.742-7.11 4.742-7.11 0 0-4.738 7.11-4.738 7.11 0M51.11 79.828c0 4.738-7.11 4.738-7.11 0 0-4.742 7.11-4.742 7.11 0M51.11 63.7c0 4.741-7.11 4.741-7.11 0 0-4.74 7.11-4.74 7.11 0M51.11 47.574c0 4.742-7.11 4.742-7.11 0s7.11-4.742 7.11 0M51.11 31.45c0 4.738-7.11 4.738-7.11 0 0-4.743 7.11-4.743 7.11 0M51.11 15.32c0 4.742-7.11 4.742-7.11 0 0-4.738 7.11-4.738 7.11 0M61.797 321.73c0 4.739-7.11 4.739-7.11 0 0-4.742 7.11-4.742 7.11 0M61.797 305.602c0 4.742-7.11 4.742-7.11 0 0-4.739 7.11-4.739 7.11 0M61.797 289.477c0 4.742-7.11 4.742-7.11 0 0-4.743 7.11-4.743 7.11 0M61.797 273.352c0 4.738-7.11 4.738-7.11 0 0-4.743 7.11-4.743 7.11 0M61.797 257.223c0 4.742-7.11 4.742-7.11 0 0-4.739 7.11-4.739 7.11 0M61.797 241.098c0 4.738-7.11 4.738-7.11 0 0-4.743 7.11-4.743 7.11 0M61.797 224.969c0 4.742-7.11 4.742-7.11 0 0-4.739 7.11-4.739 7.11 0M61.797 208.844c0 4.738-7.11 4.738-7.11 0 0-4.742 7.11-4.742 7.11 0M61.797 192.715c0 4.742-7.11 4.742-7.11 0 0-4.738 7.11-4.738 7.11 0M61.797 176.59c0 4.738-7.11 4.738-7.11 0 0-4.742 7.11-4.742 7.11 0M61.797 160.46c0 4.743-7.11 4.743-7.11 0 0-4.737 7.11-4.737 7.11 0M61.797 144.336c0 4.738-7.11 4.738-7.11 0 0-4.742 7.11-4.742 7.11 0M61.797 128.207c0 4.742-7.11 4.742-7.11 0 0-4.738 7.11-4.738 7.11 0M61.797 112.082c0 4.738-7.11 4.738-7.11 0 0-4.742 7.11-4.742 7.11 0M61.797 95.953c0 4.742-7.11 4.742-7.11 0 0-4.738 7.11-4.738 7.11 0M61.797 79.828c0 4.738-7.11 4.738-7.11 0 0-4.742 7.11-4.742 7.11 0M61.797 63.7c0 4.741-7.11 4.741-7.11 0 0-4.74 7.11-4.74 7.11 0M61.797 47.574c0 4.742-7.11 4.742-7.11 0s7.11-4.742 7.11 0M61.797 31.45c0 4.738-7.11 4.738-7.11 0 0-4.743 7.11-4.743 7.11 0M61.797 15.32c0 4.742-7.11 4.742-7.11 0 0-4.738 7.11-4.738 7.11 0M72.484 321.73c0 4.739-7.113 4.739-7.113 0 0-4.742 7.113-4.742 7.113 0M72.484 305.602c0 4.742-7.113 4.742-7.113 0 0-4.739 7.113-4.739 7.113 0M72.484 289.477c0 4.742-7.113 4.742-7.113 0 0-4.743 7.113-4.743 7.113 0M72.484 273.352c0 4.738-7.113 4.738-7.113 0 0-4.743 7.113-4.743 7.113 0M72.484 257.223c0 4.742-7.113 4.742-7.113 0 0-4.739 7.113-4.739 7.113 0M72.484 241.098c0 4.738-7.113 4.738-7.113 0 0-4.743 7.113-4.743 7.113 0M72.484 224.969c0 4.742-7.113 4.742-7.113 0 0-4.739 7.113-4.739 7.113 0M72.484 208.844c0 4.738-7.113 4.738-7.113 0 0-4.742 7.113-4.742 7.113 0M72.484 192.715c0 4.742-7.113 4.742-7.113 0 0-4.738 7.113-4.738 7.113 0M72.484 176.59c0 4.738-7.113 4.738-7.113 0 0-4.742 7.113-4.742 7.113 0M72.484 160.46c0 4.743-7.113 4.743-7.113 0 0-4.737 7.113-4.737 7.113 0M72.484 144.336c0 4.738-7.113 4.738-7.113 0 0-4.742 7.113-4.742 7.113 0M72.484 128.207c0 4.742-7.113 4.742-7.113 0 0-4.738 7.113-4.738 7.113 0M72.484 112.082c0 4.738-7.113 4.738-7.113 0 0-4.742 7.113-4.742 7.113 0M72.484 95.953c0 4.742-7.113 4.742-7.113 0 0-4.738 7.113-4.738 7.113 0M72.484 79.828c0 4.738-7.113 4.738-7.113 0 0-4.742 7.113-4.742 7.113 0M72.484 63.7c0 4.741-7.113 4.741-7.113 0 0-4.74 7.113-4.74 7.113 0M72.484 47.574c0 4.742-7.113 4.742-7.113 0s7.113-4.742 7.113 0M72.484 31.45c0 4.738-7.113 4.738-7.113 0 0-4.743 7.113-4.743 7.113 0M72.484 15.32c0 4.742-7.113 4.742-7.113 0 0-4.738 7.113-4.738 7.113 0M83.168 321.73c0 4.739-7.11 4.739-7.11 0 0-4.742 7.11-4.742 7.11 0M83.168 305.602c0 4.742-7.11 4.742-7.11 0 0-4.739 7.11-4.739 7.11 0M83.168 289.477c0 4.742-7.11 4.742-7.11 0 0-4.743 7.11-4.743 7.11 0M83.168 273.352c0 4.738-7.11 4.738-7.11 0 0-4.743 7.11-4.743 7.11 0M83.168 257.223c0 4.742-7.11 4.742-7.11 0 0-4.739 7.11-4.739 7.11 0M83.168 241.098c0 4.738-7.11 4.738-7.11 0 0-4.743 7.11-4.743 7.11 0M83.168 224.969c0 4.742-7.11 4.742-7.11 0 0-4.739 7.11-4.739 7.11 0M83.168 208.844c0 4.738-7.11 4.738-7.11 0 0-4.742 7.11-4.742 7.11 0M83.168 192.715c0 4.742-7.11 4.742-7.11 0 0-4.738 7.11-4.738 7.11 0M83.168 176.59c0 4.738-7.11 4.738-7.11 0 0-4.742 7.11-4.742 7.11 0M83.168 160.46c0 4.743-7.11 4.743-7.11 0 0-4.737 7.11-4.737 7.11 0M83.168 144.336c0 4.738-7.11 4.738-7.11 0 0-4.742 7.11-4.742 7.11 0M83.168 128.207c0 4.742-7.11 4.742-7.11 0 0-4.738 7.11-4.738 7.11 0M83.168 112.082c0 4.738-7.11 4.738-7.11 0 0-4.742 7.11-4.742 7.11 0M83.168 95.953c0 4.742-7.11 4.742-7.11 0 0-4.738 7.11-4.738 7.11 0M83.168 79.828c0 4.738-7.11 4.738-7.11 0 0-4.742 7.11-4.742 7.11 0M83.168 63.7c0 4.741-7.11 4.741-7.11 0 0-4.74 7.11-4.74 7.11 0M83.168 47.574c0 4.742-7.11 4.742-7.11 0s7.11-4.742 7.11 0M83.168 31.45c0 4.738-7.11 4.738-7.11 0 0-4.743 7.11-4.743 7.11 0M83.168 15.32c0 4.742-7.11 4.742-7.11 0 0-4.738 7.11-4.738 7.11 0M93.855 321.73c0 4.739-7.109 4.739-7.109 0 0-4.742 7.11-4.742 7.11 0M93.855 305.602c0 4.742-7.109 4.742-7.109 0 0-4.739 7.11-4.739 7.11 0M93.855 289.477c0 4.742-7.109 4.742-7.109 0 0-4.743 7.11-4.743 7.11 0M93.855 273.352c0 4.738-7.109 4.738-7.109 0 0-4.743 7.11-4.743 7.11 0M93.855 257.223c0 4.742-7.109 4.742-7.109 0 0-4.739 7.11-4.739 7.11 0M93.855 241.098c0 4.738-7.109 4.738-7.109 0 0-4.743 7.11-4.743 7.11 0M93.855 224.969c0 4.742-7.109 4.742-7.109 0 0-4.739 7.11-4.739 7.11 0M93.855 208.844c0 4.738-7.109 4.738-7.109 0 0-4.742 7.11-4.742 7.11 0M93.855 192.715c0 4.742-7.109 4.742-7.109 0 0-4.738 7.11-4.738 7.11 0M93.855 176.59c0 4.738-7.109 4.738-7.109 0 0-4.742 7.11-4.742 7.11 0M93.855 160.46c0 4.743-7.109 4.743-7.109 0 0-4.737 7.11-4.737 7.11 0M93.855 144.336c0 4.738-7.109 4.738-7.109 0 0-4.742 7.11-4.742 7.11 0M93.855 128.207c0 4.742-7.109 4.742-7.109 0 0-4.738 7.11-4.738 7.11 0M93.855 112.082c0 4.738-7.109 4.738-7.109 0 0-4.742 7.11-4.742 7.11 0M93.855 95.953c0 4.742-7.109 4.742-7.109 0 0-4.738 7.11-4.738 7.11 0M93.855 79.828c0 4.738-7.109 4.738-7.109 0 0-4.742 7.11-4.742 7.11 0M93.855 63.7c0 4.741-7.109 4.741-7.109 0 0-4.74 7.11-4.74 7.11 0M93.855 47.574c0 4.742-7.109 4.742-7.109 0s7.11-4.742 7.11 0M93.855 31.45c0 4.738-7.109 4.738-7.109 0 0-4.743 7.11-4.743 7.11 0M93.855 15.32c0 4.742-7.109 4.742-7.109 0 0-4.738 7.11-4.738 7.11 0M104.543 321.73c0 4.739-7.11 4.739-7.11 0 0-4.742 7.11-4.742 7.11 0M104.543 305.602c0 4.742-7.11 4.742-7.11 0 0-4.739 7.11-4.739 7.11 0M104.543 289.477c0 4.742-7.11 4.742-7.11 0 0-4.743 7.11-4.743 7.11 0M104.543 273.352c0 4.738-7.11 4.738-7.11 0 0-4.743 7.11-4.743 7.11 0M104.543 257.223c0 4.742-7.11 4.742-7.11 0 0-4.739 7.11-4.739 7.11 0M104.543 241.098c0 4.738-7.11 4.738-7.11 0 0-4.743 7.11-4.743 7.11 0M104.543 224.969c0 4.742-7.11 4.742-7.11 0 0-4.739 7.11-4.739 7.11 0M104.543 208.844c0 4.738-7.11 4.738-7.11 0 0-4.742 7.11-4.742 7.11 0M104.543 192.715c0 4.742-7.11 4.742-7.11 0 0-4.738 7.11-4.738 7.11 0M104.543 176.59c0 4.738-7.11 4.738-7.11 0 0-4.742 7.11-4.742 7.11 0M104.543 160.46c0 4.743-7.11 4.743-7.11 0 0-4.737 7.11-4.737 7.11 0M104.543 144.336c0 4.738-7.11 4.738-7.11 0 0-4.742 7.11-4.742 7.11 0M104.543 128.207c0 4.742-7.11 4.742-7.11 0 0-4.738 7.11-4.738 7.11 0M104.543 112.082c0 4.738-7.11 4.738-7.11 0 0-4.742 7.11-4.742 7.11 0M104.543 95.953c0 4.742-7.11 4.742-7.11 0 0-4.738 7.11-4.738 7.11 0M104.543 79.828c0 4.738-7.11 4.738-7.11 0 0-4.742 7.11-4.742 7.11 0M104.543 63.7c0 4.741-7.11 4.741-7.11 0 0-4.74 7.11-4.74 7.11 0M104.543 47.574c0 4.742-7.11 4.742-7.11 0s7.11-4.742 7.11 0M104.543 31.45c0 4.738-7.11 4.738-7.11 0 0-4.743 7.11-4.743 7.11 0M104.543 15.32c0 4.742-7.11 4.742-7.11 0 0-4.738 7.11-4.738 7.11 0M115.23 321.73c0 4.739-7.113 4.739-7.113 0 0-4.742 7.113-4.742 7.113 0M115.23 305.602c0 4.742-7.113 4.742-7.113 0 0-4.739 7.113-4.739 7.113 0M115.23 289.477c0 4.742-7.113 4.742-7.113 0 0-4.743 7.113-4.743 7.113 0M115.23 273.352c0 4.738-7.113 4.738-7.113 0 0-4.743 7.113-4.743 7.113 0M115.23 257.223c0 4.742-7.113 4.742-7.113 0 0-4.739 7.113-4.739 7.113 0M115.23 241.098c0 4.738-7.113 4.738-7.113 0 0-4.743 7.113-4.743 7.113 0M115.23 224.969c0 4.742-7.113 4.742-7.113 0 0-4.739 7.113-4.739 7.113 0M115.23 208.844c0 4.738-7.113 4.738-7.113 0 0-4.742 7.113-4.742 7.113 0M115.23 192.715c0 4.742-7.113 4.742-7.113 0 0-4.738 7.113-4.738 7.113 0M115.23 176.59c0 4.738-7.113 4.738-7.113 0 0-4.742 7.113-4.742 7.113 0M115.23 160.46c0 4.743-7.113 4.743-7.113 0 0-4.737 7.113-4.737 7.113 0M115.23 144.336c0 4.738-7.113 4.738-7.113 0 0-4.742 7.113-4.742 7.113 0M115.23 128.207c0 4.742-7.113 4.742-7.113 0 0-4.738 7.113-4.738 7.113 0M115.23 112.082c0 4.738-7.113 4.738-7.113 0 0-4.742 7.113-4.742 7.113 0M115.23 95.953c0 4.742-7.113 4.742-7.113 0 0-4.738 7.113-4.738 7.113 0M115.23 79.828c0 4.738-7.113 4.738-7.113 0 0-4.742 7.113-4.742 7.113 0M115.23 63.7c0 4.741-7.113 4.741-7.113 0 0-4.74 7.113-4.74 7.113 0M115.23 47.574c0 4.742-7.113 4.742-7.113 0s7.113-4.742 7.113 0M115.23 31.45c0 4.738-7.113 4.738-7.113 0 0-4.743 7.113-4.743 7.113 0M115.23 15.32c0 4.742-7.113 4.742-7.113 0 0-4.738 7.113-4.738 7.113 0M125.914 321.73c0 4.739-7.11 4.739-7.11 0 0-4.742 7.11-4.742 7.11 0M125.914 305.602c0 4.742-7.11 4.742-7.11 0 0-4.739 7.11-4.739 7.11 0M125.914 289.477c0 4.742-7.11 4.742-7.11 0 0-4.743 7.11-4.743 7.11 0M125.914 273.352c0 4.738-7.11 4.738-7.11 0 0-4.743 7.11-4.743 7.11 0M125.914 257.223c0 4.742-7.11 4.742-7.11 0 0-4.739 7.11-4.739 7.11 0M125.914 241.098c0 4.738-7.11 4.738-7.11 0 0-4.743 7.11-4.743 7.11 0M125.914 224.969c0 4.742-7.11 4.742-7.11 0 0-4.739 7.11-4.739 7.11 0M125.914 208.844c0 4.738-7.11 4.738-7.11 0 0-4.742 7.11-4.742 7.11 0M125.914 192.715c0 4.742-7.11 4.742-7.11 0 0-4.738 7.11-4.738 7.11 0M125.914 176.59c0 4.738-7.11 4.738-7.11 0 0-4.742 7.11-4.742 7.11 0M125.914 160.46c0 4.743-7.11 4.743-7.11 0 0-4.737 7.11-4.737 7.11 0M125.914 144.336c0 4.738-7.11 4.738-7.11 0 0-4.742 7.11-4.742 7.11 0M125.914 128.207c0 4.742-7.11 4.742-7.11 0 0-4.738 7.11-4.738 7.11 0M125.914 112.082c0 4.738-7.11 4.738-7.11 0 0-4.742 7.11-4.742 7.11 0M125.914 95.953c0 4.742-7.11 4.742-7.11 0 0-4.738 7.11-4.738 7.11 0M125.914 79.828c0 4.738-7.11 4.738-7.11 0 0-4.742 7.11-4.742 7.11 0M125.914 63.7c0 4.741-7.11 4.741-7.11 0 0-4.74 7.11-4.74 7.11 0M125.914 47.574c0 4.742-7.11 4.742-7.11 0s7.11-4.742 7.11 0M125.914 31.45c0 4.738-7.11 4.738-7.11 0 0-4.743 7.11-4.743 7.11 0M125.914 15.32c0 4.742-7.11 4.742-7.11 0 0-4.738 7.11-4.738 7.11 0M136.602 321.73c0 4.739-7.11 4.739-7.11 0 0-4.742 7.11-4.742 7.11 0M136.602 305.602c0 4.742-7.11 4.742-7.11 0 0-4.739 7.11-4.739 7.11 0M136.602 289.477c0 4.742-7.11 4.742-7.11 0 0-4.743 7.11-4.743 7.11 0M136.602 273.352c0 4.738-7.11 4.738-7.11 0 0-4.743 7.11-4.743 7.11 0M136.602 257.223c0 4.742-7.11 4.742-7.11 0 0-4.739 7.11-4.739 7.11 0M136.602 241.098c0 4.738-7.11 4.738-7.11 0 0-4.743 7.11-4.743 7.11 0M136.602 224.969c0 4.742-7.11 4.742-7.11 0 0-4.739 7.11-4.739 7.11 0M136.602 208.844c0 4.738-7.11 4.738-7.11 0 0-4.742 7.11-4.742 7.11 0M136.602 192.715c0 4.742-7.11 4.742-7.11 0 0-4.738 7.11-4.738 7.11 0M136.602 176.59c0 4.738-7.11 4.738-7.11 0 0-4.742 7.11-4.742 7.11 0M136.602 160.46c0 4.743-7.11 4.743-7.11 0 0-4.737 7.11-4.737 7.11 0M136.602 144.336c0 4.738-7.11 4.738-7.11 0 0-4.742 7.11-4.742 7.11 0M136.602 128.207c0 4.742-7.11 4.742-7.11 0 0-4.738 7.11-4.738 7.11 0M136.602 112.082c0 4.738-7.11 4.738-7.11 0 0-4.742 7.11-4.742 7.11 0M136.602 95.953c0 4.742-7.11 4.742-7.11 0 0-4.738 7.11-4.738 7.11 0M136.602 79.828c0 4.738-7.11 4.738-7.11 0 0-4.742 7.11-4.742 7.11 0M136.602 63.7c0 4.741-7.11 4.741-7.11 0 0-4.74 7.11-4.74 7.11 0M136.602 47.574c0 4.742-7.11 4.742-7.11 0s7.11-4.742 7.11 0M136.602 31.45c0 4.738-7.11 4.738-7.11 0 0-4.743 7.11-4.743 7.11 0M136.602 15.32c0 4.742-7.11 4.742-7.11 0 0-4.738 7.11-4.738 7.11 0M147.29 321.73c0 4.739-7.114 4.739-7.114 0 0-4.742 7.113-4.742 7.113 0M147.29 305.602c0 4.742-7.114 4.742-7.114 0 0-4.739 7.113-4.739 7.113 0M147.29 289.477c0 4.742-7.114 4.742-7.114 0 0-4.743 7.113-4.743 7.113 0M147.29 273.352c0 4.738-7.114 4.738-7.114 0 0-4.743 7.113-4.743 7.113 0M147.29 257.223c0 4.742-7.114 4.742-7.114 0 0-4.739 7.113-4.739 7.113 0M147.29 241.098c0 4.738-7.114 4.738-7.114 0 0-4.743 7.113-4.743 7.113 0M147.29 224.969c0 4.742-7.114 4.742-7.114 0 0-4.739 7.113-4.739 7.113 0M147.29 208.844c0 4.738-7.114 4.738-7.114 0 0-4.742 7.113-4.742 7.113 0M147.29 192.715c0 4.742-7.114 4.742-7.114 0 0-4.738 7.113-4.738 7.113 0M147.29 176.59c0 4.738-7.114 4.738-7.114 0 0-4.742 7.113-4.742 7.113 0M147.29 160.46c0 4.743-7.114 4.743-7.114 0 0-4.737 7.113-4.737 7.113 0M147.29 144.336c0 4.738-7.114 4.738-7.114 0 0-4.742 7.113-4.742 7.113 0M147.29 128.207c0 4.742-7.114 4.742-7.114 0 0-4.738 7.113-4.738 7.113 0M147.29 112.082c0 4.738-7.114 4.738-7.114 0 0-4.742 7.113-4.742 7.113 0M147.29 95.953c0 4.742-7.114 4.742-7.114 0 0-4.738 7.113-4.738 7.113 0M147.29 79.828c0 4.738-7.114 4.738-7.114 0 0-4.742 7.113-4.742 7.113 0M147.29 63.7c0 4.741-7.114 4.741-7.114 0 0-4.74 7.113-4.74 7.113 0M147.29 47.574c0 4.742-7.114 4.742-7.114 0s7.113-4.742 7.113 0M147.29 31.45c0 4.738-7.114 4.738-7.114 0 0-4.743 7.113-4.743 7.113 0M147.29 15.32c0 4.742-7.114 4.742-7.114 0 0-4.738 7.113-4.738 7.113 0M157.973 321.73c0 4.739-7.11 4.739-7.11 0 0-4.742 7.11-4.742 7.11 0M157.973 305.602c0 4.742-7.11 4.742-7.11 0 0-4.739 7.11-4.739 7.11 0M157.973 289.477c0 4.742-7.11 4.742-7.11 0 0-4.743 7.11-4.743 7.11 0M157.973 273.352c0 4.738-7.11 4.738-7.11 0 0-4.743 7.11-4.743 7.11 0M157.973 257.223c0 4.742-7.11 4.742-7.11 0 0-4.739 7.11-4.739 7.11 0M157.973 241.098c0 4.738-7.11 4.738-7.11 0 0-4.743 7.11-4.743 7.11 0M157.973 224.969c0 4.742-7.11 4.742-7.11 0 0-4.739 7.11-4.739 7.11 0M157.973 208.844c0 4.738-7.11 4.738-7.11 0 0-4.742 7.11-4.742 7.11 0M157.973 192.715c0 4.742-7.11 4.742-7.11 0 0-4.738 7.11-4.738 7.11 0M157.973 176.59c0 4.738-7.11 4.738-7.11 0 0-4.742 7.11-4.742 7.11 0M157.973 160.46c0 4.743-7.11 4.743-7.11 0 0-4.737 7.11-4.737 7.11 0M157.973 144.336c0 4.738-7.11 4.738-7.11 0 0-4.742 7.11-4.742 7.11 0M157.973 128.207c0 4.742-7.11 4.742-7.11 0 0-4.738 7.11-4.738 7.11 0M157.973 112.082c0 4.738-7.11 4.738-7.11 0 0-4.742 7.11-4.742 7.11 0M157.973 95.953c0 4.742-7.11 4.742-7.11 0 0-4.738 7.11-4.738 7.11 0M157.973 79.828c0 4.738-7.11 4.738-7.11 0 0-4.742 7.11-4.742 7.11 0M157.973 63.7c0 4.741-7.11 4.741-7.11 0 0-4.74 7.11-4.74 7.11 0M157.973 47.574c0 4.742-7.11 4.742-7.11 0s7.11-4.742 7.11 0M157.973 31.45c0 4.738-7.11 4.738-7.11 0 0-4.743 7.11-4.743 7.11 0M157.973 15.32c0 4.742-7.11 4.742-7.11 0 0-4.738 7.11-4.738 7.11 0M168.66 321.73c0 4.739-7.11 4.739-7.11 0 0-4.742 7.11-4.742 7.11 0M168.66 305.602c0 4.742-7.11 4.742-7.11 0 0-4.739 7.11-4.739 7.11 0M168.66 289.477c0 4.742-7.11 4.742-7.11 0 0-4.743 7.11-4.743 7.11 0M168.66 273.352c0 4.738-7.11 4.738-7.11 0 0-4.743 7.11-4.743 7.11 0M168.66 257.223c0 4.742-7.11 4.742-7.11 0 0-4.739 7.11-4.739 7.11 0M168.66 241.098c0 4.738-7.11 4.738-7.11 0 0-4.743 7.11-4.743 7.11 0M168.66 224.969c0 4.742-7.11 4.742-7.11 0 0-4.739 7.11-4.739 7.11 0M168.66 208.844c0 4.738-7.11 4.738-7.11 0 0-4.742 7.11-4.742 7.11 0M168.66 192.715c0 4.742-7.11 4.742-7.11 0 0-4.738 7.11-4.738 7.11 0M168.66 176.59c0 4.738-7.11 4.738-7.11 0 0-4.742 7.11-4.742 7.11 0M168.66 160.46c0 4.743-7.11 4.743-7.11 0 0-4.737 7.11-4.737 7.11 0M168.66 144.336c0 4.738-7.11 4.738-7.11 0 0-4.742 7.11-4.742 7.11 0M168.66 128.207c0 4.742-7.11 4.742-7.11 0 0-4.738 7.11-4.738 7.11 0M168.66 112.082c0 4.738-7.11 4.738-7.11 0 0-4.742 7.11-4.742 7.11 0M168.66 95.953c0 4.742-7.11 4.742-7.11 0 0-4.738 7.11-4.738 7.11 0M168.66 79.828c0 4.738-7.11 4.738-7.11 0 0-4.742 7.11-4.742 7.11 0M168.66 63.7c0 4.741-7.11 4.741-7.11 0 0-4.74 7.11-4.74 7.11 0M168.66 47.574c0 4.742-7.11 4.742-7.11 0s7.11-4.742 7.11 0M168.66 31.45c0 4.738-7.11 4.738-7.11 0 0-4.743 7.11-4.743 7.11 0M168.66 15.32c0 4.742-7.11 4.742-7.11 0 0-4.738 7.11-4.738 7.11 0M179.348 321.73c0 4.739-7.11 4.739-7.11 0 0-4.742 7.11-4.742 7.11 0M179.348 305.602c0 4.742-7.11 4.742-7.11 0 0-4.739 7.11-4.739 7.11 0M179.348 289.477c0 4.742-7.11 4.742-7.11 0 0-4.743 7.11-4.743 7.11 0M179.348 273.352c0 4.738-7.11 4.738-7.11 0 0-4.743 7.11-4.743 7.11 0M179.348 257.223c0 4.742-7.11 4.742-7.11 0 0-4.739 7.11-4.739 7.11 0M179.348 241.098c0 4.738-7.11 4.738-7.11 0 0-4.743 7.11-4.743 7.11 0M179.348 224.969c0 4.742-7.11 4.742-7.11 0 0-4.739 7.11-4.739 7.11 0M179.348 208.844c0 4.738-7.11 4.738-7.11 0 0-4.742 7.11-4.742 7.11 0M179.348 192.715c0 4.742-7.11 4.742-7.11 0 0-4.738 7.11-4.738 7.11 0M179.348 176.59c0 4.738-7.11 4.738-7.11 0 0-4.742 7.11-4.742 7.11 0M179.348 160.46c0 4.743-7.11 4.743-7.11 0 0-4.737 7.11-4.737 7.11 0M179.348 144.336c0 4.738-7.11 4.738-7.11 0 0-4.742 7.11-4.742 7.11 0M179.348 128.207c0 4.742-7.11 4.742-7.11 0 0-4.738 7.11-4.738 7.11 0M179.348 112.082c0 4.738-7.11 4.738-7.11 0 0-4.742 7.11-4.742 7.11 0M179.348 95.953c0 4.742-7.11 4.742-7.11 0 0-4.738 7.11-4.738 7.11 0M179.348 79.828c0 4.738-7.11 4.738-7.11 0 0-4.742 7.11-4.742 7.11 0M179.348 63.7c0 4.741-7.11 4.741-7.11 0 0-4.74 7.11-4.74 7.11 0M179.348 47.574c0 4.742-7.11 4.742-7.11 0s7.11-4.742 7.11 0M179.348 31.45c0 4.738-7.11 4.738-7.11 0 0-4.743 7.11-4.743 7.11 0M179.348 15.32c0 4.742-7.11 4.742-7.11 0 0-4.738 7.11-4.738 7.11 0M190.035 321.73c0 4.739-7.113 4.739-7.113 0 0-4.742 7.113-4.742 7.113 0M190.035 305.602c0 4.742-7.113 4.742-7.113 0 0-4.739 7.113-4.739 7.113 0M190.035 289.477c0 4.742-7.113 4.742-7.113 0 0-4.743 7.113-4.743 7.113 0M190.035 273.352c0 4.738-7.113 4.738-7.113 0 0-4.743 7.113-4.743 7.113 0M190.035 257.223c0 4.742-7.113 4.742-7.113 0 0-4.739 7.113-4.739 7.113 0M190.035 241.098c0 4.738-7.113 4.738-7.113 0 0-4.743 7.113-4.743 7.113 0M190.035 224.969c0 4.742-7.113 4.742-7.113 0 0-4.739 7.113-4.739 7.113 0M190.035 208.844c0 4.738-7.113 4.738-7.113 0 0-4.742 7.113-4.742 7.113 0M190.035 192.715c0 4.742-7.113 4.742-7.113 0 0-4.738 7.113-4.738 7.113 0M190.035 176.59c0 4.738-7.113 4.738-7.113 0 0-4.742 7.113-4.742 7.113 0M190.035 160.46c0 4.743-7.113 4.743-7.113 0 0-4.737 7.113-4.737 7.113 0M190.035 144.336c0 4.738-7.113 4.738-7.113 0 0-4.742 7.113-4.742 7.113 0M190.035 128.207c0 4.742-7.113 4.742-7.113 0 0-4.738 7.113-4.738 7.113 0M190.035 112.082c0 4.738-7.113 4.738-7.113 0 0-4.742 7.113-4.742 7.113 0M190.035 95.953c0 4.742-7.113 4.742-7.113 0 0-4.738 7.113-4.738 7.113 0M190.035 79.828c0 4.738-7.113 4.738-7.113 0 0-4.742 7.113-4.742 7.113 0M190.035 63.7c0 4.741-7.113 4.741-7.113 0 0-4.74 7.113-4.74 7.113 0M190.035 47.574c0 4.742-7.113 4.742-7.113 0s7.113-4.742 7.113 0M190.035 31.45c0 4.738-7.113 4.738-7.113 0 0-4.743 7.113-4.743 7.113 0M190.035 15.32c0 4.742-7.113 4.742-7.113 0 0-4.738 7.113-4.738 7.113 0M200.719 321.73c0 4.739-7.11 4.739-7.11 0 0-4.742 7.11-4.742 7.11 0M200.719 305.602c0 4.742-7.11 4.742-7.11 0 0-4.739 7.11-4.739 7.11 0M200.719 289.477c0 4.742-7.11 4.742-7.11 0 0-4.743 7.11-4.743 7.11 0M200.719 273.352c0 4.738-7.11 4.738-7.11 0 0-4.743 7.11-4.743 7.11 0M200.719 257.223c0 4.742-7.11 4.742-7.11 0 0-4.739 7.11-4.739 7.11 0M200.719 241.098c0 4.738-7.11 4.738-7.11 0 0-4.743 7.11-4.743 7.11 0M200.719 224.969c0 4.742-7.11 4.742-7.11 0 0-4.739 7.11-4.739 7.11 0M200.719 208.844c0 4.738-7.11 4.738-7.11 0 0-4.742 7.11-4.742 7.11 0M200.719 192.715c0 4.742-7.11 4.742-7.11 0 0-4.738 7.11-4.738 7.11 0M200.719 176.59c0 4.738-7.11 4.738-7.11 0 0-4.742 7.11-4.742 7.11 0M200.719 160.46c0 4.743-7.11 4.743-7.11 0 0-4.737 7.11-4.737 7.11 0M200.719 144.336c0 4.738-7.11 4.738-7.11 0 0-4.742 7.11-4.742 7.11 0M200.719 128.207c0 4.742-7.11 4.742-7.11 0 0-4.738 7.11-4.738 7.11 0M200.719 112.082c0 4.738-7.11 4.738-7.11 0 0-4.742 7.11-4.742 7.11 0M200.719 95.953c0 4.742-7.11 4.742-7.11 0 0-4.738 7.11-4.738 7.11 0M200.719 79.828c0 4.738-7.11 4.738-7.11 0 0-4.742 7.11-4.742 7.11 0M200.719 63.7c0 4.741-7.11 4.741-7.11 0 0-4.74 7.11-4.74 7.11 0M200.719 47.574c0 4.742-7.11 4.742-7.11 0s7.11-4.742 7.11 0M200.719 31.45c0 4.738-7.11 4.738-7.11 0 0-4.743 7.11-4.743 7.11 0M200.719 15.32c0 4.742-7.11 4.742-7.11 0 0-4.738 7.11-4.738 7.11 0M211.406 321.73c0 4.739-7.11 4.739-7.11 0 0-4.742 7.11-4.742 7.11 0M211.406 305.602c0 4.742-7.11 4.742-7.11 0 0-4.739 7.11-4.739 7.11 0M211.406 289.477c0 4.742-7.11 4.742-7.11 0 0-4.743 7.11-4.743 7.11 0M211.406 273.352c0 4.738-7.11 4.738-7.11 0 0-4.743 7.11-4.743 7.11 0M211.406 257.223c0 4.742-7.11 4.742-7.11 0 0-4.739 7.11-4.739 7.11 0M211.406 241.098c0 4.738-7.11 4.738-7.11 0 0-4.743 7.11-4.743 7.11 0M211.406 224.969c0 4.742-7.11 4.742-7.11 0 0-4.739 7.11-4.739 7.11 0M211.406 208.844c0 4.738-7.11 4.738-7.11 0 0-4.742 7.11-4.742 7.11 0M211.406 192.715c0 4.742-7.11 4.742-7.11 0 0-4.738 7.11-4.738 7.11 0M211.406 176.59c0 4.738-7.11 4.738-7.11 0 0-4.742 7.11-4.742 7.11 0M211.406 160.46c0 4.743-7.11 4.743-7.11 0 0-4.737 7.11-4.737 7.11 0M211.406 144.336c0 4.738-7.11 4.738-7.11 0 0-4.742 7.11-4.742 7.11 0M211.406 128.207c0 4.742-7.11 4.742-7.11 0 0-4.738 7.11-4.738 7.11 0M211.406 112.082c0 4.738-7.11 4.738-7.11 0 0-4.742 7.11-4.742 7.11 0M211.406 95.953c0 4.742-7.11 4.742-7.11 0 0-4.738 7.11-4.738 7.11 0M211.406 79.828c0 4.738-7.11 4.738-7.11 0 0-4.742 7.11-4.742 7.11 0M211.406 63.7c0 4.741-7.11 4.741-7.11 0 0-4.74 7.11-4.74 7.11 0M211.406 47.574c0 4.742-7.11 4.742-7.11 0s7.11-4.742 7.11 0M211.406 31.45c0 4.738-7.11 4.738-7.11 0 0-4.743 7.11-4.743 7.11 0M211.406 15.32c0 4.742-7.11 4.742-7.11 0 0-4.738 7.11-4.738 7.11 0M222.094 321.73c0 4.739-7.11 4.739-7.11 0 0-4.742 7.11-4.742 7.11 0M222.094 305.602c0 4.742-7.11 4.742-7.11 0 0-4.739 7.11-4.739 7.11 0M222.094 289.477c0 4.742-7.11 4.742-7.11 0 0-4.743 7.11-4.743 7.11 0M222.094 273.352c0 4.738-7.11 4.738-7.11 0 0-4.743 7.11-4.743 7.11 0M222.094 257.223c0 4.742-7.11 4.742-7.11 0 0-4.739 7.11-4.739 7.11 0M222.094 241.098c0 4.738-7.11 4.738-7.11 0 0-4.743 7.11-4.743 7.11 0M222.094 224.969c0 4.742-7.11 4.742-7.11 0 0-4.739 7.11-4.739 7.11 0M222.094 208.844c0 4.738-7.11 4.738-7.11 0 0-4.742 7.11-4.742 7.11 0M222.094 192.715c0 4.742-7.11 4.742-7.11 0 0-4.738 7.11-4.738 7.11 0M222.094 176.59c0 4.738-7.11 4.738-7.11 0 0-4.742 7.11-4.742 7.11 0M222.094 160.46c0 4.743-7.11 4.743-7.11 0 0-4.737 7.11-4.737 7.11 0M222.094 144.336c0 4.738-7.11 4.738-7.11 0 0-4.742 7.11-4.742 7.11 0M222.094 128.207c0 4.742-7.11 4.742-7.11 0 0-4.738 7.11-4.738 7.11 0M222.094 112.082c0 4.738-7.11 4.738-7.11 0 0-4.742 7.11-4.742 7.11 0M222.094 95.953c0 4.742-7.11 4.742-7.11 0 0-4.738 7.11-4.738 7.11 0M222.094 79.828c0 4.738-7.11 4.738-7.11 0 0-4.742 7.11-4.742 7.11 0M222.094 63.7c0 4.741-7.11 4.741-7.11 0 0-4.74 7.11-4.74 7.11 0M222.094 47.574c0 4.742-7.11 4.742-7.11 0s7.11-4.742 7.11 0M222.094 31.45c0 4.738-7.11 4.738-7.11 0 0-4.743 7.11-4.743 7.11 0M222.094 15.32c0 4.742-7.11 4.742-7.11 0 0-4.738 7.11-4.738 7.11 0M232.781 321.73c0 4.739-7.113 4.739-7.113 0 0-4.742 7.113-4.742 7.113 0M232.781 305.602c0 4.742-7.113 4.742-7.113 0 0-4.739 7.113-4.739 7.113 0M232.781 289.477c0 4.742-7.113 4.742-7.113 0 0-4.743 7.113-4.743 7.113 0M232.781 273.352c0 4.738-7.113 4.738-7.113 0 0-4.743 7.113-4.743 7.113 0M232.781 257.223c0 4.742-7.113 4.742-7.113 0 0-4.739 7.113-4.739 7.113 0M232.781 241.098c0 4.738-7.113 4.738-7.113 0 0-4.743 7.113-4.743 7.113 0M232.781 224.969c0 4.742-7.113 4.742-7.113 0 0-4.739 7.113-4.739 7.113 0M232.781 208.844c0 4.738-7.113 4.738-7.113 0 0-4.742 7.113-4.742 7.113 0M232.781 192.715c0 4.742-7.113 4.742-7.113 0 0-4.738 7.113-4.738 7.113 0M232.781 176.59c0 4.738-7.113 4.738-7.113 0 0-4.742 7.113-4.742 7.113 0M232.781 160.46c0 4.743-7.113 4.743-7.113 0 0-4.737 7.113-4.737 7.113 0M232.781 144.336c0 4.738-7.113 4.738-7.113 0 0-4.742 7.113-4.742 7.113 0M232.781 128.207c0 4.742-7.113 4.742-7.113 0 0-4.738 7.113-4.738 7.113 0M232.781 112.082c0 4.738-7.113 4.738-7.113 0 0-4.742 7.113-4.742 7.113 0M232.781 95.953c0 4.742-7.113 4.742-7.113 0 0-4.738 7.113-4.738 7.113 0M232.781 79.828c0 4.738-7.113 4.738-7.113 0 0-4.742 7.113-4.742 7.113 0M232.781 63.7c0 4.741-7.113 4.741-7.113 0 0-4.74 7.113-4.74 7.113 0M232.781 47.574c0 4.742-7.113 4.742-7.113 0s7.113-4.742 7.113 0M232.781 31.45c0 4.738-7.113 4.738-7.113 0 0-4.743 7.113-4.743 7.113 0M232.781 15.32c0 4.742-7.113 4.742-7.113 0 0-4.738 7.113-4.738 7.113 0M243.465 321.73c0 4.739-7.11 4.739-7.11 0 0-4.742 7.11-4.742 7.11 0M243.465 305.602c0 4.742-7.11 4.742-7.11 0 0-4.739 7.11-4.739 7.11 0M243.465 289.477c0 4.742-7.11 4.742-7.11 0 0-4.743 7.11-4.743 7.11 0M243.465 273.352c0 4.738-7.11 4.738-7.11 0 0-4.743 7.11-4.743 7.11 0M243.465 257.223c0 4.742-7.11 4.742-7.11 0 0-4.739 7.11-4.739 7.11 0M243.465 241.098c0 4.738-7.11 4.738-7.11 0 0-4.743 7.11-4.743 7.11 0M243.465 224.969c0 4.742-7.11 4.742-7.11 0 0-4.739 7.11-4.739 7.11 0M243.465 208.844c0 4.738-7.11 4.738-7.11 0 0-4.742 7.11-4.742 7.11 0M243.465 192.715c0 4.742-7.11 4.742-7.11 0 0-4.738 7.11-4.738 7.11 0M243.465 176.59c0 4.738-7.11 4.738-7.11 0 0-4.742 7.11-4.742 7.11 0M243.465 160.46c0 4.743-7.11 4.743-7.11 0 0-4.737 7.11-4.737 7.11 0M243.465 144.336c0 4.738-7.11 4.738-7.11 0 0-4.742 7.11-4.742 7.11 0M243.465 128.207c0 4.742-7.11 4.742-7.11 0 0-4.738 7.11-4.738 7.11 0M243.465 112.082c0 4.738-7.11 4.738-7.11 0 0-4.742 7.11-4.742 7.11 0M243.465 95.953c0 4.742-7.11 4.742-7.11 0 0-4.738 7.11-4.738 7.11 0M243.465 79.828c0 4.738-7.11 4.738-7.11 0 0-4.742 7.11-4.742 7.11 0M243.465 63.7c0 4.741-7.11 4.741-7.11 0 0-4.74 7.11-4.74 7.11 0M243.465 47.574c0 4.742-7.11 4.742-7.11 0s7.11-4.742 7.11 0M243.465 31.45c0 4.738-7.11 4.738-7.11 0 0-4.743 7.11-4.743 7.11 0M243.465 15.32c0 4.742-7.11 4.742-7.11 0 0-4.738 7.11-4.738 7.11 0M254.152 321.73c0 4.739-7.109 4.739-7.109 0 0-4.742 7.11-4.742 7.11 0M254.152 305.602c0 4.742-7.109 4.742-7.109 0 0-4.739 7.11-4.739 7.11 0M254.152 289.477c0 4.742-7.109 4.742-7.109 0 0-4.743 7.11-4.743 7.11 0M254.152 273.352c0 4.738-7.109 4.738-7.109 0 0-4.743 7.11-4.743 7.11 0M254.152 257.223c0 4.742-7.109 4.742-7.109 0 0-4.739 7.11-4.739 7.11 0M254.152 241.098c0 4.738-7.109 4.738-7.109 0 0-4.743 7.11-4.743 7.11 0M254.152 224.969c0 4.742-7.109 4.742-7.109 0 0-4.739 7.11-4.739 7.11 0M254.152 208.844c0 4.738-7.109 4.738-7.109 0 0-4.742 7.11-4.742 7.11 0M254.152 192.715c0 4.742-7.109 4.742-7.109 0 0-4.738 7.11-4.738 7.11 0M254.152 176.59c0 4.738-7.109 4.738-7.109 0 0-4.742 7.11-4.742 7.11 0M254.152 160.46c0 4.743-7.109 4.743-7.109 0 0-4.737 7.11-4.737 7.11 0M254.152 144.336c0 4.738-7.109 4.738-7.109 0 0-4.742 7.11-4.742 7.11 0M254.152 128.207c0 4.742-7.109 4.742-7.109 0 0-4.738 7.11-4.738 7.11 0M254.152 112.082c0 4.738-7.109 4.738-7.109 0 0-4.742 7.11-4.742 7.11 0M254.152 95.953c0 4.742-7.109 4.742-7.109 0 0-4.738 7.11-4.738 7.11 0M254.152 79.828c0 4.738-7.109 4.738-7.109 0 0-4.742 7.11-4.742 7.11 0M254.152 63.7c0 4.741-7.109 4.741-7.109 0 0-4.74 7.11-4.74 7.11 0M254.152 47.574c0 4.742-7.109 4.742-7.109 0s7.11-4.742 7.11 0M254.152 31.45c0 4.738-7.109 4.738-7.109 0 0-4.743 7.11-4.743 7.11 0M254.152 15.32c0 4.742-7.109 4.742-7.109 0 0-4.738 7.11-4.738 7.11 0M264.84 321.73c0 4.739-7.11 4.739-7.11 0 0-4.742 7.11-4.742 7.11 0M264.84 305.602c0 4.742-7.11 4.742-7.11 0 0-4.739 7.11-4.739 7.11 0M264.84 289.477c0 4.742-7.11 4.742-7.11 0 0-4.743 7.11-4.743 7.11 0M264.84 273.352c0 4.738-7.11 4.738-7.11 0 0-4.743 7.11-4.743 7.11 0M264.84 257.223c0 4.742-7.11 4.742-7.11 0 0-4.739 7.11-4.739 7.11 0" fill="#00ba58" stroke-width=".709" stroke-linecap="round" stroke-linejoin="round" stroke="#00ba58" stroke-miterlimit="10"/><path d="M264.84 241.098c0 4.738-7.11 4.738-7.11 0 0-4.743 7.11-4.743 7.11 0" fill="#f8766d" stroke-width=".709" stroke-linecap="round" stroke-linejoin="round" stroke="#f8766d" stroke-miterlimit="10"/><path d="M264.84 224.969c0 4.742-7.11 4.742-7.11 0 0-4.739 7.11-4.739 7.11 0M264.84 208.844c0 4.738-7.11 4.738-7.11 0 0-4.742 7.11-4.742 7.11 0M264.84 192.715c0 4.742-7.11 4.742-7.11 0 0-4.738 7.11-4.738 7.11 0M264.84 176.59c0 4.738-7.11 4.738-7.11 0 0-4.742 7.11-4.742 7.11 0M264.84 160.46c0 4.743-7.11 4.743-7.11 0 0-4.737 7.11-4.737 7.11 0M264.84 144.336c0 4.738-7.11 4.738-7.11 0 0-4.742 7.11-4.742 7.11 0M264.84 128.207c0 4.742-7.11 4.742-7.11 0 0-4.738 7.11-4.738 7.11 0M264.84 112.082c0 4.738-7.11 4.738-7.11 0 0-4.742 7.11-4.742 7.11 0M264.84 95.953c0 4.742-7.11 4.742-7.11 0 0-4.738 7.11-4.738 7.11 0M264.84 79.828c0 4.738-7.11 4.738-7.11 0 0-4.742 7.11-4.742 7.11 0M264.84 63.7c0 4.741-7.11 4.741-7.11 0 0-4.74 7.11-4.74 7.11 0M264.84 47.574c0 4.742-7.11 4.742-7.11 0s7.11-4.742 7.11 0M264.84 31.45c0 4.738-7.11 4.738-7.11 0 0-4.743 7.11-4.743 7.11 0M264.84 15.32c0 4.742-7.11 4.742-7.11 0 0-4.738 7.11-4.738 7.11 0M275.527 321.73c0 4.739-7.113 4.739-7.113 0 0-4.742 7.113-4.742 7.113 0M275.527 305.602c0 4.742-7.113 4.742-7.113 0 0-4.739 7.113-4.739 7.113 0M275.527 289.477c0 4.742-7.113 4.742-7.113 0 0-4.743 7.113-4.743 7.113 0M275.527 273.352c0 4.738-7.113 4.738-7.113 0 0-4.743 7.113-4.743 7.113 0M275.527 257.223c0 4.742-7.113 4.742-7.113 0 0-4.739 7.113-4.739 7.113 0M275.527 241.098c0 4.738-7.113 4.738-7.113 0 0-4.743 7.113-4.743 7.113 0M275.527 224.969c0 4.742-7.113 4.742-7.113 0 0-4.739 7.113-4.739 7.113 0M275.527 208.844c0 4.738-7.113 4.738-7.113 0 0-4.742 7.113-4.742 7.113 0M275.527 192.715c0 4.742-7.113 4.742-7.113 0 0-4.738 7.113-4.738 7.113 0M275.527 176.59c0 4.738-7.113 4.738-7.113 0 0-4.742 7.113-4.742 7.113 0M275.527 160.46c0 4.743-7.113 4.743-7.113 0 0-4.737 7.113-4.737 7.113 0M275.527 144.336c0 4.738-7.113 4.738-7.113 0 0-4.742 7.113-4.742 7.113 0M275.527 128.207c0 4.742-7.113 4.742-7.113 0 0-4.738 7.113-4.738 7.113 0M275.527 112.082c0 4.738-7.113 4.738-7.113 0 0-4.742 7.113-4.742 7.113 0M275.527 95.953c0 4.742-7.113 4.742-7.113 0 0-4.738 7.113-4.738 7.113 0M275.527 79.828c0 4.738-7.113 4.738-7.113 0 0-4.742 7.113-4.742 7.113 0M275.527 63.7c0 4.741-7.113 4.741-7.113 0 0-4.74 7.113-4.74 7.113 0M275.527 47.574c0 4.742-7.113 4.742-7.113 0s7.113-4.742 7.113 0M275.527 31.45c0 4.738-7.113 4.738-7.113 0 0-4.743 7.113-4.743 7.113 0M275.527 15.32c0 4.742-7.113 4.742-7.113 0 0-4.738 7.113-4.738 7.113 0M286.21 321.73c0 4.739-7.108 4.739-7.108 0 0-4.742 7.109-4.742 7.109 0M286.21 305.602c0 4.742-7.108 4.742-7.108 0 0-4.739 7.109-4.739 7.109 0M286.21 289.477c0 4.742-7.108 4.742-7.108 0 0-4.743 7.109-4.743 7.109 0M286.21 273.352c0 4.738-7.108 4.738-7.108 0 0-4.743 7.109-4.743 7.109 0M286.21 257.223c0 4.742-7.108 4.742-7.108 0 0-4.739 7.109-4.739 7.109 0M286.21 241.098c0 4.738-7.108 4.738-7.108 0 0-4.743 7.109-4.743 7.109 0M286.21 224.969c0 4.742-7.108 4.742-7.108 0 0-4.739 7.109-4.739 7.109 0M286.21 208.844c0 4.738-7.108 4.738-7.108 0 0-4.742 7.109-4.742 7.109 0M286.21 192.715c0 4.742-7.108 4.742-7.108 0 0-4.738 7.109-4.738 7.109 0M286.21 176.59c0 4.738-7.108 4.738-7.108 0 0-4.742 7.109-4.742 7.109 0M286.21 160.46c0 4.743-7.108 4.743-7.108 0 0-4.737 7.109-4.737 7.109 0M286.21 144.336c0 4.738-7.108 4.738-7.108 0 0-4.742 7.109-4.742 7.109 0M286.21 128.207c0 4.742-7.108 4.742-7.108 0 0-4.738 7.109-4.738 7.109 0M286.21 112.082c0 4.738-7.108 4.738-7.108 0 0-4.742 7.109-4.742 7.109 0M286.21 95.953c0 4.742-7.108 4.742-7.108 0 0-4.738 7.109-4.738 7.109 0M286.21 79.828c0 4.738-7.108 4.738-7.108 0 0-4.742 7.109-4.742 7.109 0M286.21 63.7c0 4.741-7.108 4.741-7.108 0 0-4.74 7.109-4.74 7.109 0M286.21 47.574c0 4.742-7.108 4.742-7.108 0s7.109-4.742 7.109 0M286.21 31.45c0 4.738-7.108 4.738-7.108 0 0-4.743 7.109-4.743 7.109 0M286.21 15.32c0 4.742-7.108 4.742-7.108 0 0-4.738 7.109-4.738 7.109 0M296.898 321.73c0 4.739-7.109 4.739-7.109 0 0-4.742 7.11-4.742 7.11 0M296.898 305.602c0 4.742-7.109 4.742-7.109 0 0-4.739 7.11-4.739 7.11 0M296.898 289.477c0 4.742-7.109 4.742-7.109 0 0-4.743 7.11-4.743 7.11 0M296.898 273.352c0 4.738-7.109 4.738-7.109 0 0-4.743 7.11-4.743 7.11 0M296.898 257.223c0 4.742-7.109 4.742-7.109 0 0-4.739 7.11-4.739 7.11 0M296.898 241.098c0 4.738-7.109 4.738-7.109 0 0-4.743 7.11-4.743 7.11 0M296.898 224.969c0 4.742-7.109 4.742-7.109 0 0-4.739 7.11-4.739 7.11 0M296.898 208.844c0 4.738-7.109 4.738-7.109 0 0-4.742 7.11-4.742 7.11 0M296.898 192.715c0 4.742-7.109 4.742-7.109 0 0-4.738 7.11-4.738 7.11 0M296.898 176.59c0 4.738-7.109 4.738-7.109 0 0-4.742 7.11-4.742 7.11 0M296.898 160.46c0 4.743-7.109 4.743-7.109 0 0-4.737 7.11-4.737 7.11 0M296.898 144.336c0 4.738-7.109 4.738-7.109 0 0-4.742 7.11-4.742 7.11 0M296.898 128.207c0 4.742-7.109 4.742-7.109 0 0-4.738 7.11-4.738 7.11 0M296.898 112.082c0 4.738-7.109 4.738-7.109 0 0-4.742 7.11-4.742 7.11 0M296.898 95.953c0 4.742-7.109 4.742-7.109 0 0-4.738 7.11-4.738 7.11 0M296.898 79.828c0 4.738-7.109 4.738-7.109 0 0-4.742 7.11-4.742 7.11 0M296.898 63.7c0 4.741-7.109 4.741-7.109 0 0-4.74 7.11-4.74 7.11 0M296.898 47.574c0 4.742-7.109 4.742-7.109 0s7.11-4.742 7.11 0M296.898 31.45c0 4.738-7.109 4.738-7.109 0 0-4.743 7.11-4.743 7.11 0M296.898 15.32c0 4.742-7.109 4.742-7.109 0 0-4.738 7.11-4.738 7.11 0M307.586 321.73c0 4.739-7.113 4.739-7.113 0 0-4.742 7.113-4.742 7.113 0M307.586 305.602c0 4.742-7.113 4.742-7.113 0 0-4.739 7.113-4.739 7.113 0M307.586 289.477c0 4.742-7.113 4.742-7.113 0 0-4.743 7.113-4.743 7.113 0M307.586 273.352c0 4.738-7.113 4.738-7.113 0 0-4.743 7.113-4.743 7.113 0M307.586 257.223c0 4.742-7.113 4.742-7.113 0 0-4.739 7.113-4.739 7.113 0M307.586 241.098c0 4.738-7.113 4.738-7.113 0 0-4.743 7.113-4.743 7.113 0M307.586 224.969c0 4.742-7.113 4.742-7.113 0 0-4.739 7.113-4.739 7.113 0M307.586 208.844c0 4.738-7.113 4.738-7.113 0 0-4.742 7.113-4.742 7.113 0M307.586 192.715c0 4.742-7.113 4.742-7.113 0 0-4.738 7.113-4.738 7.113 0M307.586 176.59c0 4.738-7.113 4.738-7.113 0 0-4.742 7.113-4.742 7.113 0M307.586 160.46c0 4.743-7.113 4.743-7.113 0 0-4.737 7.113-4.737 7.113 0M307.586 144.336c0 4.738-7.113 4.738-7.113 0 0-4.742 7.113-4.742 7.113 0M307.586 128.207c0 4.742-7.113 4.742-7.113 0 0-4.738 7.113-4.738 7.113 0M307.586 112.082c0 4.738-7.113 4.738-7.113 0 0-4.742 7.113-4.742 7.113 0M307.586 95.953c0 4.742-7.113 4.742-7.113 0 0-4.738 7.113-4.738 7.113 0M307.586 79.828c0 4.738-7.113 4.738-7.113 0 0-4.742 7.113-4.742 7.113 0M307.586 63.7c0 4.741-7.113 4.741-7.113 0 0-4.74 7.113-4.74 7.113 0M307.586 47.574c0 4.742-7.113 4.742-7.113 0s7.113-4.742 7.113 0M307.586 31.45c0 4.738-7.113 4.738-7.113 0 0-4.743 7.113-4.743 7.113 0M307.586 15.32c0 4.742-7.113 4.742-7.113 0 0-4.738 7.113-4.738 7.113 0M318.27 321.73c0 4.739-7.11 4.739-7.11 0 0-4.742 7.11-4.742 7.11 0M318.27 305.602c0 4.742-7.11 4.742-7.11 0 0-4.739 7.11-4.739 7.11 0M318.27 289.477c0 4.742-7.11 4.742-7.11 0 0-4.743 7.11-4.743 7.11 0M318.27 273.352c0 4.738-7.11 4.738-7.11 0 0-4.743 7.11-4.743 7.11 0M318.27 257.223c0 4.742-7.11 4.742-7.11 0 0-4.739 7.11-4.739 7.11 0M318.27 241.098c0 4.738-7.11 4.738-7.11 0 0-4.743 7.11-4.743 7.11 0M318.27 224.969c0 4.742-7.11 4.742-7.11 0 0-4.739 7.11-4.739 7.11 0M318.27 208.844c0 4.738-7.11 4.738-7.11 0 0-4.742 7.11-4.742 7.11 0M318.27 192.715c0 4.742-7.11 4.742-7.11 0 0-4.738 7.11-4.738 7.11 0M318.27 176.59c0 4.738-7.11 4.738-7.11 0 0-4.742 7.11-4.742 7.11 0M318.27 160.46c0 4.743-7.11 4.743-7.11 0 0-4.737 7.11-4.737 7.11 0M318.27 144.336c0 4.738-7.11 4.738-7.11 0 0-4.742 7.11-4.742 7.11 0M318.27 128.207c0 4.742-7.11 4.742-7.11 0 0-4.738 7.11-4.738 7.11 0M318.27 112.082c0 4.738-7.11 4.738-7.11 0 0-4.742 7.11-4.742 7.11 0M318.27 95.953c0 4.742-7.11 4.742-7.11 0 0-4.738 7.11-4.738 7.11 0M318.27 79.828c0 4.738-7.11 4.738-7.11 0 0-4.742 7.11-4.742 7.11 0M318.27 63.7c0 4.741-7.11 4.741-7.11 0 0-4.74 7.11-4.74 7.11 0M318.27 47.574c0 4.742-7.11 4.742-7.11 0s7.11-4.742 7.11 0M318.27 31.45c0 4.738-7.11 4.738-7.11 0 0-4.743 7.11-4.743 7.11 0M318.27 15.32c0 4.742-7.11 4.742-7.11 0 0-4.738 7.11-4.738 7.11 0M328.957 321.73c0 4.739-7.11 4.739-7.11 0 0-4.742 7.11-4.742 7.11 0M328.957 305.602c0 4.742-7.11 4.742-7.11 0 0-4.739 7.11-4.739 7.11 0M328.957 289.477c0 4.742-7.11 4.742-7.11 0 0-4.743 7.11-4.743 7.11 0M328.957 273.352c0 4.738-7.11 4.738-7.11 0 0-4.743 7.11-4.743 7.11 0M328.957 257.223c0 4.742-7.11 4.742-7.11 0 0-4.739 7.11-4.739 7.11 0M328.957 241.098c0 4.738-7.11 4.738-7.11 0 0-4.743 7.11-4.743 7.11 0M328.957 224.969c0 4.742-7.11 4.742-7.11 0 0-4.739 7.11-4.739 7.11 0M328.957 208.844c0 4.738-7.11 4.738-7.11 0 0-4.742 7.11-4.742 7.11 0M328.957 192.715c0 4.742-7.11 4.742-7.11 0 0-4.738 7.11-4.738 7.11 0M328.957 176.59c0 4.738-7.11 4.738-7.11 0 0-4.742 7.11-4.742 7.11 0M328.957 160.46c0 4.743-7.11 4.743-7.11 0 0-4.737 7.11-4.737 7.11 0M328.957 144.336c0 4.738-7.11 4.738-7.11 0 0-4.742 7.11-4.742 7.11 0M328.957 128.207c0 4.742-7.11 4.742-7.11 0 0-4.738 7.11-4.738 7.11 0M328.957 112.082c0 4.738-7.11 4.738-7.11 0 0-4.742 7.11-4.742 7.11 0M328.957 95.953c0 4.742-7.11 4.742-7.11 0 0-4.738 7.11-4.738 7.11 0M328.957 79.828c0 4.738-7.11 4.738-7.11 0 0-4.742 7.11-4.742 7.11 0M328.957 63.7c0 4.741-7.11 4.741-7.11 0 0-4.74 7.11-4.74 7.11 0M328.957 47.574c0 4.742-7.11 4.742-7.11 0s7.11-4.742 7.11 0M328.957 31.45c0 4.738-7.11 4.738-7.11 0 0-4.743 7.11-4.743 7.11 0M328.957 15.32c0 4.742-7.11 4.742-7.11 0 0-4.738 7.11-4.738 7.11 0M339.645 321.73c0 4.739-7.11 4.739-7.11 0 0-4.742 7.11-4.742 7.11 0M339.645 305.602c0 4.742-7.11 4.742-7.11 0 0-4.739 7.11-4.739 7.11 0M339.645 289.477c0 4.742-7.11 4.742-7.11 0 0-4.743 7.11-4.743 7.11 0M339.645 273.352c0 4.738-7.11 4.738-7.11 0 0-4.743 7.11-4.743 7.11 0M339.645 257.223c0 4.742-7.11 4.742-7.11 0 0-4.739 7.11-4.739 7.11 0M339.645 241.098c0 4.738-7.11 4.738-7.11 0 0-4.743 7.11-4.743 7.11 0M339.645 224.969c0 4.742-7.11 4.742-7.11 0 0-4.739 7.11-4.739 7.11 0M339.645 208.844c0 4.738-7.11 4.738-7.11 0 0-4.742 7.11-4.742 7.11 0M339.645 192.715c0 4.742-7.11 4.742-7.11 0 0-4.738 7.11-4.738 7.11 0M339.645 176.59c0 4.738-7.11 4.738-7.11 0 0-4.742 7.11-4.742 7.11 0M339.645 160.46c0 4.743-7.11 4.743-7.11 0 0-4.737 7.11-4.737 7.11 0M339.645 144.336c0 4.738-7.11 4.738-7.11 0 0-4.742 7.11-4.742 7.11 0M339.645 128.207c0 4.742-7.11 4.742-7.11 0 0-4.738 7.11-4.738 7.11 0M339.645 112.082c0 4.738-7.11 4.738-7.11 0 0-4.742 7.11-4.742 7.11 0M339.645 95.953c0 4.742-7.11 4.742-7.11 0 0-4.738 7.11-4.738 7.11 0M339.645 79.828c0 4.738-7.11 4.738-7.11 0 0-4.742 7.11-4.742 7.11 0M339.645 63.7c0 4.741-7.11 4.741-7.11 0 0-4.74 7.11-4.74 7.11 0M339.645 47.574c0 4.742-7.11 4.742-7.11 0s7.11-4.742 7.11 0M339.645 31.45c0 4.738-7.11 4.738-7.11 0 0-4.743 7.11-4.743 7.11 0M339.645 15.32c0 4.742-7.11 4.742-7.11 0 0-4.738 7.11-4.738 7.11 0M350.332 321.73c0 4.739-7.113 4.739-7.113 0 0-4.742 7.113-4.742 7.113 0M350.332 305.602c0 4.742-7.113 4.742-7.113 0 0-4.739 7.113-4.739 7.113 0M350.332 289.477c0 4.742-7.113 4.742-7.113 0 0-4.743 7.113-4.743 7.113 0M350.332 273.352c0 4.738-7.113 4.738-7.113 0 0-4.743 7.113-4.743 7.113 0M350.332 257.223c0 4.742-7.113 4.742-7.113 0 0-4.739 7.113-4.739 7.113 0M350.332 241.098c0 4.738-7.113 4.738-7.113 0 0-4.743 7.113-4.743 7.113 0M350.332 224.969c0 4.742-7.113 4.742-7.113 0 0-4.739 7.113-4.739 7.113 0M350.332 208.844c0 4.738-7.113 4.738-7.113 0 0-4.742 7.113-4.742 7.113 0M350.332 192.715c0 4.742-7.113 4.742-7.113 0 0-4.738 7.113-4.738 7.113 0M350.332 176.59c0 4.738-7.113 4.738-7.113 0 0-4.742 7.113-4.742 7.113 0M350.332 160.46c0 4.743-7.113 4.743-7.113 0 0-4.737 7.113-4.737 7.113 0M350.332 144.336c0 4.738-7.113 4.738-7.113 0 0-4.742 7.113-4.742 7.113 0M350.332 128.207c0 4.742-7.113 4.742-7.113 0 0-4.738 7.113-4.738 7.113 0M350.332 112.082c0 4.738-7.113 4.738-7.113 0 0-4.742 7.113-4.742 7.113 0M350.332 95.953c0 4.742-7.113 4.742-7.113 0 0-4.738 7.113-4.738 7.113 0M350.332 79.828c0 4.738-7.113 4.738-7.113 0 0-4.742 7.113-4.742 7.113 0M350.332 63.7c0 4.741-7.113 4.741-7.113 0 0-4.74 7.113-4.74 7.113 0M350.332 47.574c0 4.742-7.113 4.742-7.113 0s7.113-4.742 7.113 0M350.332 31.45c0 4.738-7.113 4.738-7.113 0 0-4.743 7.113-4.743 7.113 0M350.332 15.32c0 4.742-7.113 4.742-7.113 0 0-4.738 7.113-4.738 7.113 0M361.016 321.73c0 4.739-7.11 4.739-7.11 0 0-4.742 7.11-4.742 7.11 0M361.016 305.602c0 4.742-7.11 4.742-7.11 0 0-4.739 7.11-4.739 7.11 0M361.016 289.477c0 4.742-7.11 4.742-7.11 0 0-4.743 7.11-4.743 7.11 0M361.016 273.352c0 4.738-7.11 4.738-7.11 0 0-4.743 7.11-4.743 7.11 0M361.016 257.223c0 4.742-7.11 4.742-7.11 0 0-4.739 7.11-4.739 7.11 0M361.016 241.098c0 4.738-7.11 4.738-7.11 0 0-4.743 7.11-4.743 7.11 0M361.016 224.969c0 4.742-7.11 4.742-7.11 0 0-4.739 7.11-4.739 7.11 0M361.016 208.844c0 4.738-7.11 4.738-7.11 0 0-4.742 7.11-4.742 7.11 0M361.016 192.715c0 4.742-7.11 4.742-7.11 0 0-4.738 7.11-4.738 7.11 0M361.016 176.59c0 4.738-7.11 4.738-7.11 0 0-4.742 7.11-4.742 7.11 0M361.016 160.46c0 4.743-7.11 4.743-7.11 0 0-4.737 7.11-4.737 7.11 0M361.016 144.336c0 4.738-7.11 4.738-7.11 0 0-4.742 7.11-4.742 7.11 0M361.016 128.207c0 4.742-7.11 4.742-7.11 0 0-4.738 7.11-4.738 7.11 0M361.016 112.082c0 4.738-7.11 4.738-7.11 0 0-4.742 7.11-4.742 7.11 0M361.016 95.953c0 4.742-7.11 4.742-7.11 0 0-4.738 7.11-4.738 7.11 0M361.016 79.828c0 4.738-7.11 4.738-7.11 0 0-4.742 7.11-4.742 7.11 0M361.016 63.7c0 4.741-7.11 4.741-7.11 0 0-4.74 7.11-4.74 7.11 0" fill="#00ba58" stroke-width=".709" stroke-linecap="round" stroke-linejoin="round" stroke="#00ba58" stroke-miterlimit="10"/><path d="M361.016 47.574c0 4.742-7.11 4.742-7.11 0s7.11-4.742 7.11 0" fill="#f8766d" stroke-width=".709" stroke-linecap="round" stroke-linejoin="round" stroke="#f8766d" stroke-miterlimit="10"/><path d="M361.016 31.45c0 4.738-7.11 4.738-7.11 0 0-4.743 7.11-4.743 7.11 0M361.016 15.32c0 4.742-7.11 4.742-7.11 0 0-4.738 7.11-4.738 7.11 0M371.703 321.73c0 4.739-7.11 4.739-7.11 0 0-4.742 7.11-4.742 7.11 0M371.703 305.602c0 4.742-7.11 4.742-7.11 0 0-4.739 7.11-4.739 7.11 0M371.703 289.477c0 4.742-7.11 4.742-7.11 0 0-4.743 7.11-4.743 7.11 0M371.703 273.352c0 4.738-7.11 4.738-7.11 0 0-4.743 7.11-4.743 7.11 0M371.703 257.223c0 4.742-7.11 4.742-7.11 0 0-4.739 7.11-4.739 7.11 0M371.703 241.098c0 4.738-7.11 4.738-7.11 0 0-4.743 7.11-4.743 7.11 0M371.703 224.969c0 4.742-7.11 4.742-7.11 0 0-4.739 7.11-4.739 7.11 0M371.703 208.844c0 4.738-7.11 4.738-7.11 0 0-4.742 7.11-4.742 7.11 0M371.703 192.715c0 4.742-7.11 4.742-7.11 0 0-4.738 7.11-4.738 7.11 0M371.703 176.59c0 4.738-7.11 4.738-7.11 0 0-4.742 7.11-4.742 7.11 0M371.703 160.46c0 4.743-7.11 4.743-7.11 0 0-4.737 7.11-4.737 7.11 0M371.703 144.336c0 4.738-7.11 4.738-7.11 0 0-4.742 7.11-4.742 7.11 0M371.703 128.207c0 4.742-7.11 4.742-7.11 0 0-4.738 7.11-4.738 7.11 0M371.703 112.082c0 4.738-7.11 4.738-7.11 0 0-4.742 7.11-4.742 7.11 0M371.703 95.953c0 4.742-7.11 4.742-7.11 0 0-4.738 7.11-4.738 7.11 0M371.703 79.828c0 4.738-7.11 4.738-7.11 0 0-4.742 7.11-4.742 7.11 0M371.703 63.7c0 4.741-7.11 4.741-7.11 0 0-4.74 7.11-4.74 7.11 0M371.703 47.574c0 4.742-7.11 4.742-7.11 0s7.11-4.742 7.11 0M371.703 31.45c0 4.738-7.11 4.738-7.11 0 0-4.743 7.11-4.743 7.11 0M371.703 15.32c0 4.742-7.11 4.742-7.11 0 0-4.738 7.11-4.738 7.11 0M382.39 321.73c0 4.739-7.109 4.739-7.109 0 0-4.742 7.11-4.742 7.11 0M382.39 305.602c0 4.742-7.109 4.742-7.109 0 0-4.739 7.11-4.739 7.11 0M382.39 289.477c0 4.742-7.109 4.742-7.109 0 0-4.743 7.11-4.743 7.11 0M382.39 273.352c0 4.738-7.109 4.738-7.109 0 0-4.743 7.11-4.743 7.11 0M382.39 257.223c0 4.742-7.109 4.742-7.109 0 0-4.739 7.11-4.739 7.11 0M382.39 241.098c0 4.738-7.109 4.738-7.109 0 0-4.743 7.11-4.743 7.11 0M382.39 224.969c0 4.742-7.109 4.742-7.109 0 0-4.739 7.11-4.739 7.11 0M382.39 208.844c0 4.738-7.109 4.738-7.109 0 0-4.742 7.11-4.742 7.11 0M382.39 192.715c0 4.742-7.109 4.742-7.109 0 0-4.738 7.11-4.738 7.11 0M382.39 176.59c0 4.738-7.109 4.738-7.109 0 0-4.742 7.11-4.742 7.11 0M382.39 160.46c0 4.743-7.109 4.743-7.109 0 0-4.737 7.11-4.737 7.11 0M382.39 144.336c0 4.738-7.109 4.738-7.109 0 0-4.742 7.11-4.742 7.11 0M382.39 128.207c0 4.742-7.109 4.742-7.109 0 0-4.738 7.11-4.738 7.11 0M382.39 112.082c0 4.738-7.109 4.738-7.109 0 0-4.742 7.11-4.742 7.11 0M382.39 95.953c0 4.742-7.109 4.742-7.109 0 0-4.738 7.11-4.738 7.11 0M382.39 79.828c0 4.738-7.109 4.738-7.109 0 0-4.742 7.11-4.742 7.11 0M382.39 63.7c0 4.741-7.109 4.741-7.109 0 0-4.74 7.11-4.74 7.11 0M382.39 47.574c0 4.742-7.109 4.742-7.109 0s7.11-4.742 7.11 0M382.39 31.45c0 4.738-7.109 4.738-7.109 0 0-4.743 7.11-4.743 7.11 0M382.39 15.32c0 4.742-7.109 4.742-7.109 0 0-4.738 7.11-4.738 7.11 0M393.078 321.73c0 4.739-7.113 4.739-7.113 0 0-4.742 7.113-4.742 7.113 0M393.078 305.602c0 4.742-7.113 4.742-7.113 0 0-4.739 7.113-4.739 7.113 0M393.078 289.477c0 4.742-7.113 4.742-7.113 0 0-4.743 7.113-4.743 7.113 0M393.078 273.352c0 4.738-7.113 4.738-7.113 0 0-4.743 7.113-4.743 7.113 0M393.078 257.223c0 4.742-7.113 4.742-7.113 0 0-4.739 7.113-4.739 7.113 0M393.078 241.098c0 4.738-7.113 4.738-7.113 0 0-4.743 7.113-4.743 7.113 0M393.078 224.969c0 4.742-7.113 4.742-7.113 0 0-4.739 7.113-4.739 7.113 0M393.078 208.844c0 4.738-7.113 4.738-7.113 0 0-4.742 7.113-4.742 7.113 0M393.078 192.715c0 4.742-7.113 4.742-7.113 0 0-4.738 7.113-4.738 7.113 0M393.078 176.59c0 4.738-7.113 4.738-7.113 0 0-4.742 7.113-4.742 7.113 0M393.078 160.46c0 4.743-7.113 4.743-7.113 0 0-4.737 7.113-4.737 7.113 0M393.078 144.336c0 4.738-7.113 4.738-7.113 0 0-4.742 7.113-4.742 7.113 0M393.078 128.207c0 4.742-7.113 4.742-7.113 0 0-4.738 7.113-4.738 7.113 0M393.078 112.082c0 4.738-7.113 4.738-7.113 0 0-4.742 7.113-4.742 7.113 0M393.078 95.953c0 4.742-7.113 4.742-7.113 0 0-4.738 7.113-4.738 7.113 0M393.078 79.828c0 4.738-7.113 4.738-7.113 0 0-4.742 7.113-4.742 7.113 0M393.078 63.7c0 4.741-7.113 4.741-7.113 0 0-4.74 7.113-4.74 7.113 0M393.078 47.574c0 4.742-7.113 4.742-7.113 0s7.113-4.742 7.113 0M393.078 31.45c0 4.738-7.113 4.738-7.113 0 0-4.743 7.113-4.743 7.113 0M393.078 15.32c0 4.742-7.113 4.742-7.113 0 0-4.738 7.113-4.738 7.113 0M403.762 321.73c0 4.739-7.11 4.739-7.11 0 0-4.742 7.11-4.742 7.11 0M403.762 305.602c0 4.742-7.11 4.742-7.11 0 0-4.739 7.11-4.739 7.11 0M403.762 289.477c0 4.742-7.11 4.742-7.11 0 0-4.743 7.11-4.743 7.11 0M403.762 273.352c0 4.738-7.11 4.738-7.11 0 0-4.743 7.11-4.743 7.11 0M403.762 257.223c0 4.742-7.11 4.742-7.11 0 0-4.739 7.11-4.739 7.11 0M403.762 241.098c0 4.738-7.11 4.738-7.11 0 0-4.743 7.11-4.743 7.11 0M403.762 224.969c0 4.742-7.11 4.742-7.11 0 0-4.739 7.11-4.739 7.11 0M403.762 208.844c0 4.738-7.11 4.738-7.11 0 0-4.742 7.11-4.742 7.11 0M403.762 192.715c0 4.742-7.11 4.742-7.11 0 0-4.738 7.11-4.738 7.11 0M403.762 176.59c0 4.738-7.11 4.738-7.11 0 0-4.742 7.11-4.742 7.11 0M403.762 160.46c0 4.743-7.11 4.743-7.11 0 0-4.737 7.11-4.737 7.11 0M403.762 144.336c0 4.738-7.11 4.738-7.11 0 0-4.742 7.11-4.742 7.11 0M403.762 128.207c0 4.742-7.11 4.742-7.11 0 0-4.738 7.11-4.738 7.11 0M403.762 112.082c0 4.738-7.11 4.738-7.11 0 0-4.742 7.11-4.742 7.11 0M403.762 95.953c0 4.742-7.11 4.742-7.11 0 0-4.738 7.11-4.738 7.11 0M403.762 79.828c0 4.738-7.11 4.738-7.11 0 0-4.742 7.11-4.742 7.11 0M403.762 63.7c0 4.741-7.11 4.741-7.11 0 0-4.74 7.11-4.74 7.11 0M403.762 47.574c0 4.742-7.11 4.742-7.11 0s7.11-4.742 7.11 0M403.762 31.45c0 4.738-7.11 4.738-7.11 0 0-4.743 7.11-4.743 7.11 0M403.762 15.32c0 4.742-7.11 4.742-7.11 0 0-4.738 7.11-4.738 7.11 0M414.45 321.73c0 4.739-7.11 4.739-7.11 0 0-4.742 7.11-4.742 7.11 0M414.45 305.602c0 4.742-7.11 4.742-7.11 0 0-4.739 7.11-4.739 7.11 0M414.45 289.477c0 4.742-7.11 4.742-7.11 0 0-4.743 7.11-4.743 7.11 0M414.45 273.352c0 4.738-7.11 4.738-7.11 0 0-4.743 7.11-4.743 7.11 0M414.45 257.223c0 4.742-7.11 4.742-7.11 0 0-4.739 7.11-4.739 7.11 0M414.45 241.098c0 4.738-7.11 4.738-7.11 0 0-4.743 7.11-4.743 7.11 0M414.45 224.969c0 4.742-7.11 4.742-7.11 0 0-4.739 7.11-4.739 7.11 0M414.45 208.844c0 4.738-7.11 4.738-7.11 0 0-4.742 7.11-4.742 7.11 0M414.45 192.715c0 4.742-7.11 4.742-7.11 0 0-4.738 7.11-4.738 7.11 0M414.45 176.59c0 4.738-7.11 4.738-7.11 0 0-4.742 7.11-4.742 7.11 0M414.45 160.46c0 4.743-7.11 4.743-7.11 0 0-4.737 7.11-4.737 7.11 0M414.45 144.336c0 4.738-7.11 4.738-7.11 0 0-4.742 7.11-4.742 7.11 0M414.45 128.207c0 4.742-7.11 4.742-7.11 0 0-4.738 7.11-4.738 7.11 0M414.45 112.082c0 4.738-7.11 4.738-7.11 0 0-4.742 7.11-4.742 7.11 0M414.45 95.953c0 4.742-7.11 4.742-7.11 0 0-4.738 7.11-4.738 7.11 0M414.45 79.828c0 4.738-7.11 4.738-7.11 0 0-4.742 7.11-4.742 7.11 0M414.45 63.7c0 4.741-7.11 4.741-7.11 0 0-4.74 7.11-4.74 7.11 0M414.45 47.574c0 4.742-7.11 4.742-7.11 0s7.11-4.742 7.11 0M414.45 31.45c0 4.738-7.11 4.738-7.11 0 0-4.743 7.11-4.743 7.11 0M414.45 15.32c0 4.742-7.11 4.742-7.11 0 0-4.738 7.11-4.738 7.11 0M425.137 321.73c0 4.739-7.11 4.739-7.11 0 0-4.742 7.11-4.742 7.11 0M425.137 305.602c0 4.742-7.11 4.742-7.11 0 0-4.739 7.11-4.739 7.11 0M425.137 289.477c0 4.742-7.11 4.742-7.11 0 0-4.743 7.11-4.743 7.11 0M425.137 273.352c0 4.738-7.11 4.738-7.11 0 0-4.743 7.11-4.743 7.11 0M425.137 257.223c0 4.742-7.11 4.742-7.11 0 0-4.739 7.11-4.739 7.11 0M425.137 241.098c0 4.738-7.11 4.738-7.11 0 0-4.743 7.11-4.743 7.11 0M425.137 224.969c0 4.742-7.11 4.742-7.11 0 0-4.739 7.11-4.739 7.11 0M425.137 208.844c0 4.738-7.11 4.738-7.11 0 0-4.742 7.11-4.742 7.11 0M425.137 192.715c0 4.742-7.11 4.742-7.11 0 0-4.738 7.11-4.738 7.11 0M425.137 176.59c0 4.738-7.11 4.738-7.11 0 0-4.742 7.11-4.742 7.11 0M425.137 160.46c0 4.743-7.11 4.743-7.11 0 0-4.737 7.11-4.737 7.11 0M425.137 144.336c0 4.738-7.11 4.738-7.11 0 0-4.742 7.11-4.742 7.11 0M425.137 128.207c0 4.742-7.11 4.742-7.11 0 0-4.738 7.11-4.738 7.11 0M425.137 112.082c0 4.738-7.11 4.738-7.11 0 0-4.742 7.11-4.742 7.11 0M425.137 95.953c0 4.742-7.11 4.742-7.11 0 0-4.738 7.11-4.738 7.11 0M425.137 79.828c0 4.738-7.11 4.738-7.11 0 0-4.742 7.11-4.742 7.11 0M425.137 63.7c0 4.741-7.11 4.741-7.11 0 0-4.74 7.11-4.74 7.11 0M425.137 47.574c0 4.742-7.11 4.742-7.11 0s7.11-4.742 7.11 0M425.137 31.45c0 4.738-7.11 4.738-7.11 0 0-4.743 7.11-4.743 7.11 0M425.137 15.32c0 4.742-7.11 4.742-7.11 0 0-4.738 7.11-4.738 7.11 0M435.824 321.73c0 4.739-7.113 4.739-7.113 0 0-4.742 7.113-4.742 7.113 0M435.824 305.602c0 4.742-7.113 4.742-7.113 0 0-4.739 7.113-4.739 7.113 0M435.824 289.477c0 4.742-7.113 4.742-7.113 0 0-4.743 7.113-4.743 7.113 0M435.824 273.352c0 4.738-7.113 4.738-7.113 0 0-4.743 7.113-4.743 7.113 0M435.824 257.223c0 4.742-7.113 4.742-7.113 0 0-4.739 7.113-4.739 7.113 0M435.824 241.098c0 4.738-7.113 4.738-7.113 0 0-4.743 7.113-4.743 7.113 0M435.824 224.969c0 4.742-7.113 4.742-7.113 0 0-4.739 7.113-4.739 7.113 0M435.824 208.844c0 4.738-7.113 4.738-7.113 0 0-4.742 7.113-4.742 7.113 0M435.824 192.715c0 4.742-7.113 4.742-7.113 0 0-4.738 7.113-4.738 7.113 0M435.824 176.59c0 4.738-7.113 4.738-7.113 0 0-4.742 7.113-4.742 7.113 0M435.824 160.46c0 4.743-7.113 4.743-7.113 0 0-4.737 7.113-4.737 7.113 0M435.824 144.336c0 4.738-7.113 4.738-7.113 0 0-4.742 7.113-4.742 7.113 0M435.824 128.207c0 4.742-7.113 4.742-7.113 0 0-4.738 7.113-4.738 7.113 0M435.824 112.082c0 4.738-7.113 4.738-7.113 0 0-4.742 7.113-4.742 7.113 0M435.824 95.953c0 4.742-7.113 4.742-7.113 0 0-4.738 7.113-4.738 7.113 0M435.824 79.828c0 4.738-7.113 4.738-7.113 0 0-4.742 7.113-4.742 7.113 0M435.824 63.7c0 4.741-7.113 4.741-7.113 0 0-4.74 7.113-4.74 7.113 0M435.824 47.574c0 4.742-7.113 4.742-7.113 0s7.113-4.742 7.113 0M435.824 31.45c0 4.738-7.113 4.738-7.113 0 0-4.743 7.113-4.743 7.113 0M435.824 15.32c0 4.742-7.113 4.742-7.113 0 0-4.738 7.113-4.738 7.113 0M446.508 321.73c0 4.739-7.11 4.739-7.11 0 0-4.742 7.11-4.742 7.11 0M446.508 305.602c0 4.742-7.11 4.742-7.11 0 0-4.739 7.11-4.739 7.11 0M446.508 289.477c0 4.742-7.11 4.742-7.11 0 0-4.743 7.11-4.743 7.11 0M446.508 273.352c0 4.738-7.11 4.738-7.11 0 0-4.743 7.11-4.743 7.11 0M446.508 257.223c0 4.742-7.11 4.742-7.11 0 0-4.739 7.11-4.739 7.11 0M446.508 241.098c0 4.738-7.11 4.738-7.11 0 0-4.743 7.11-4.743 7.11 0M446.508 224.969c0 4.742-7.11 4.742-7.11 0 0-4.739 7.11-4.739 7.11 0M446.508 208.844c0 4.738-7.11 4.738-7.11 0 0-4.742 7.11-4.742 7.11 0M446.508 192.715c0 4.742-7.11 4.742-7.11 0 0-4.738 7.11-4.738 7.11 0M446.508 176.59c0 4.738-7.11 4.738-7.11 0 0-4.742 7.11-4.742 7.11 0M446.508 160.46c0 4.743-7.11 4.743-7.11 0 0-4.737 7.11-4.737 7.11 0M446.508 144.336c0 4.738-7.11 4.738-7.11 0 0-4.742 7.11-4.742 7.11 0M446.508 128.207c0 4.742-7.11 4.742-7.11 0 0-4.738 7.11-4.738 7.11 0M446.508 112.082c0 4.738-7.11 4.738-7.11 0 0-4.742 7.11-4.742 7.11 0M446.508 95.953c0 4.742-7.11 4.742-7.11 0 0-4.738 7.11-4.738 7.11 0M446.508 79.828c0 4.738-7.11 4.738-7.11 0 0-4.742 7.11-4.742 7.11 0M446.508 63.7c0 4.741-7.11 4.741-7.11 0 0-4.74 7.11-4.74 7.11 0M446.508 47.574c0 4.742-7.11 4.742-7.11 0s7.11-4.742 7.11 0M446.508 31.45c0 4.738-7.11 4.738-7.11 0 0-4.743 7.11-4.743 7.11 0M446.508 15.32c0 4.742-7.11 4.742-7.11 0 0-4.738 7.11-4.738 7.11 0M457.195 321.73c0 4.739-7.11 4.739-7.11 0 0-4.742 7.11-4.742 7.11 0M457.195 305.602c0 4.742-7.11 4.742-7.11 0 0-4.739 7.11-4.739 7.11 0M457.195 289.477c0 4.742-7.11 4.742-7.11 0 0-4.743 7.11-4.743 7.11 0M457.195 273.352c0 4.738-7.11 4.738-7.11 0 0-4.743 7.11-4.743 7.11 0M457.195 257.223c0 4.742-7.11 4.742-7.11 0 0-4.739 7.11-4.739 7.11 0M457.195 241.098c0 4.738-7.11 4.738-7.11 0 0-4.743 7.11-4.743 7.11 0M457.195 224.969c0 4.742-7.11 4.742-7.11 0 0-4.739 7.11-4.739 7.11 0M457.195 208.844c0 4.738-7.11 4.738-7.11 0 0-4.742 7.11-4.742 7.11 0M457.195 192.715c0 4.742-7.11 4.742-7.11 0 0-4.738 7.11-4.738 7.11 0M457.195 176.59c0 4.738-7.11 4.738-7.11 0 0-4.742 7.11-4.742 7.11 0M457.195 160.46c0 4.743-7.11 4.743-7.11 0 0-4.737 7.11-4.737 7.11 0M457.195 144.336c0 4.738-7.11 4.738-7.11 0 0-4.742 7.11-4.742 7.11 0M457.195 128.207c0 4.742-7.11 4.742-7.11 0 0-4.738 7.11-4.738 7.11 0M457.195 112.082c0 4.738-7.11 4.738-7.11 0 0-4.742 7.11-4.742 7.11 0M457.195 95.953c0 4.742-7.11 4.742-7.11 0 0-4.738 7.11-4.738 7.11 0M457.195 79.828c0 4.738-7.11 4.738-7.11 0 0-4.742 7.11-4.742 7.11 0M457.195 63.7c0 4.741-7.11 4.741-7.11 0 0-4.74 7.11-4.74 7.11 0M457.195 47.574c0 4.742-7.11 4.742-7.11 0s7.11-4.742 7.11 0M457.195 31.45c0 4.738-7.11 4.738-7.11 0 0-4.743 7.11-4.743 7.11 0M457.195 15.32c0 4.742-7.11 4.742-7.11 0 0-4.738 7.11-4.738 7.11 0M467.883 321.73c0 4.739-7.113 4.739-7.113 0 0-4.742 7.113-4.742 7.113 0M467.883 305.602c0 4.742-7.113 4.742-7.113 0 0-4.739 7.113-4.739 7.113 0M467.883 289.477c0 4.742-7.113 4.742-7.113 0 0-4.743 7.113-4.743 7.113 0M467.883 273.352c0 4.738-7.113 4.738-7.113 0 0-4.743 7.113-4.743 7.113 0M467.883 257.223c0 4.742-7.113 4.742-7.113 0 0-4.739 7.113-4.739 7.113 0M467.883 241.098c0 4.738-7.113 4.738-7.113 0 0-4.743 7.113-4.743 7.113 0M467.883 224.969c0 4.742-7.113 4.742-7.113 0 0-4.739 7.113-4.739 7.113 0M467.883 208.844c0 4.738-7.113 4.738-7.113 0 0-4.742 7.113-4.742 7.113 0M467.883 192.715c0 4.742-7.113 4.742-7.113 0 0-4.738 7.113-4.738 7.113 0M467.883 176.59c0 4.738-7.113 4.738-7.113 0 0-4.742 7.113-4.742 7.113 0M467.883 160.46c0 4.743-7.113 4.743-7.113 0 0-4.737 7.113-4.737 7.113 0M467.883 144.336c0 4.738-7.113 4.738-7.113 0 0-4.742 7.113-4.742 7.113 0M467.883 128.207c0 4.742-7.113 4.742-7.113 0 0-4.738 7.113-4.738 7.113 0M467.883 112.082c0 4.738-7.113 4.738-7.113 0 0-4.742 7.113-4.742 7.113 0M467.883 95.953c0 4.742-7.113 4.742-7.113 0 0-4.738 7.113-4.738 7.113 0M467.883 79.828c0 4.738-7.113 4.738-7.113 0 0-4.742 7.113-4.742 7.113 0M467.883 63.7c0 4.741-7.113 4.741-7.113 0 0-4.74 7.113-4.74 7.113 0M467.883 47.574c0 4.742-7.113 4.742-7.113 0s7.113-4.742 7.113 0M467.883 31.45c0 4.738-7.113 4.738-7.113 0 0-4.743 7.113-4.743 7.113 0M467.883 15.32c0 4.742-7.113 4.742-7.113 0 0-4.738 7.113-4.738 7.113 0M478.566 321.73c0 4.739-7.109 4.739-7.109 0 0-4.742 7.11-4.742 7.11 0M478.566 305.602c0 4.742-7.109 4.742-7.109 0 0-4.739 7.11-4.739 7.11 0M478.566 289.477c0 4.742-7.109 4.742-7.109 0 0-4.743 7.11-4.743 7.11 0M478.566 273.352c0 4.738-7.109 4.738-7.109 0 0-4.743 7.11-4.743 7.11 0M478.566 257.223c0 4.742-7.109 4.742-7.109 0 0-4.739 7.11-4.739 7.11 0M478.566 241.098c0 4.738-7.109 4.738-7.109 0 0-4.743 7.11-4.743 7.11 0M478.566 224.969c0 4.742-7.109 4.742-7.109 0 0-4.739 7.11-4.739 7.11 0M478.566 208.844c0 4.738-7.109 4.738-7.109 0 0-4.742 7.11-4.742 7.11 0M478.566 192.715c0 4.742-7.109 4.742-7.109 0 0-4.738 7.11-4.738 7.11 0M478.566 176.59c0 4.738-7.109 4.738-7.109 0 0-4.742 7.11-4.742 7.11 0M478.566 160.46c0 4.743-7.109 4.743-7.109 0 0-4.737 7.11-4.737 7.11 0M478.566 144.336c0 4.738-7.109 4.738-7.109 0 0-4.742 7.11-4.742 7.11 0M478.566 128.207c0 4.742-7.109 4.742-7.109 0 0-4.738 7.11-4.738 7.11 0M478.566 112.082c0 4.738-7.109 4.738-7.109 0 0-4.742 7.11-4.742 7.11 0M478.566 95.953c0 4.742-7.109 4.742-7.109 0 0-4.738 7.11-4.738 7.11 0M478.566 79.828c0 4.738-7.109 4.738-7.109 0 0-4.742 7.11-4.742 7.11 0M478.566 63.7c0 4.741-7.109 4.741-7.109 0 0-4.74 7.11-4.74 7.11 0M478.566 47.574c0 4.742-7.109 4.742-7.109 0s7.11-4.742 7.11 0M478.566 31.45c0 4.738-7.109 4.738-7.109 0 0-4.743 7.11-4.743 7.11 0M478.566 15.32c0 4.742-7.109 4.742-7.109 0 0-4.738 7.11-4.738 7.11 0M489.254 321.73c0 4.739-7.11 4.739-7.11 0 0-4.742 7.11-4.742 7.11 0M489.254 305.602c0 4.742-7.11 4.742-7.11 0 0-4.739 7.11-4.739 7.11 0M489.254 289.477c0 4.742-7.11 4.742-7.11 0 0-4.743 7.11-4.743 7.11 0M489.254 273.352c0 4.738-7.11 4.738-7.11 0 0-4.743 7.11-4.743 7.11 0M489.254 257.223c0 4.742-7.11 4.742-7.11 0 0-4.739 7.11-4.739 7.11 0M489.254 241.098c0 4.738-7.11 4.738-7.11 0 0-4.743 7.11-4.743 7.11 0M489.254 224.969c0 4.742-7.11 4.742-7.11 0 0-4.739 7.11-4.739 7.11 0M489.254 208.844c0 4.738-7.11 4.738-7.11 0 0-4.742 7.11-4.742 7.11 0M489.254 192.715c0 4.742-7.11 4.742-7.11 0 0-4.738 7.11-4.738 7.11 0M489.254 176.59c0 4.738-7.11 4.738-7.11 0 0-4.742 7.11-4.742 7.11 0M489.254 160.46c0 4.743-7.11 4.743-7.11 0 0-4.737 7.11-4.737 7.11 0M489.254 144.336c0 4.738-7.11 4.738-7.11 0 0-4.742 7.11-4.742 7.11 0M489.254 128.207c0 4.742-7.11 4.742-7.11 0 0-4.738 7.11-4.738 7.11 0M489.254 112.082c0 4.738-7.11 4.738-7.11 0 0-4.742 7.11-4.742 7.11 0M489.254 95.953c0 4.742-7.11 4.742-7.11 0 0-4.738 7.11-4.738 7.11 0M489.254 79.828c0 4.738-7.11 4.738-7.11 0 0-4.742 7.11-4.742 7.11 0M489.254 63.7c0 4.741-7.11 4.741-7.11 0 0-4.74 7.11-4.74 7.11 0M489.254 47.574c0 4.742-7.11 4.742-7.11 0s7.11-4.742 7.11 0M489.254 31.45c0 4.738-7.11 4.738-7.11 0 0-4.743 7.11-4.743 7.11 0M489.254 15.32c0 4.742-7.11 4.742-7.11 0 0-4.738 7.11-4.738 7.11 0M499.941 321.73c0 4.739-7.109 4.739-7.109 0 0-4.742 7.11-4.742 7.11 0M499.941 305.602c0 4.742-7.109 4.742-7.109 0 0-4.739 7.11-4.739 7.11 0M499.941 289.477c0 4.742-7.109 4.742-7.109 0 0-4.743 7.11-4.743 7.11 0M499.941 273.352c0 4.738-7.109 4.738-7.109 0 0-4.743 7.11-4.743 7.11 0M499.941 257.223c0 4.742-7.109 4.742-7.109 0 0-4.739 7.11-4.739 7.11 0M499.941 241.098c0 4.738-7.109 4.738-7.109 0 0-4.743 7.11-4.743 7.11 0M499.941 224.969c0 4.742-7.109 4.742-7.109 0 0-4.739 7.11-4.739 7.11 0M499.941 208.844c0 4.738-7.109 4.738-7.109 0 0-4.742 7.11-4.742 7.11 0M499.941 192.715c0 4.742-7.109 4.742-7.109 0 0-4.738 7.11-4.738 7.11 0M499.941 176.59c0 4.738-7.109 4.738-7.109 0 0-4.742 7.11-4.742 7.11 0M499.941 160.46c0 4.743-7.109 4.743-7.109 0 0-4.737 7.11-4.737 7.11 0M499.941 144.336c0 4.738-7.109 4.738-7.109 0 0-4.742 7.11-4.742 7.11 0M499.941 128.207c0 4.742-7.109 4.742-7.109 0 0-4.738 7.11-4.738 7.11 0M499.941 112.082c0 4.738-7.109 4.738-7.109 0 0-4.742 7.11-4.742 7.11 0M499.941 95.953c0 4.742-7.109 4.742-7.109 0 0-4.738 7.11-4.738 7.11 0M499.941 79.828c0 4.738-7.109 4.738-7.109 0 0-4.742 7.11-4.742 7.11 0M499.941 63.7c0 4.741-7.109 4.741-7.109 0 0-4.74 7.11-4.74 7.11 0M499.941 47.574c0 4.742-7.109 4.742-7.109 0s7.11-4.742 7.11 0M499.941 31.45c0 4.738-7.109 4.738-7.109 0 0-4.743 7.11-4.743 7.11 0M499.941 15.32c0 4.742-7.109 4.742-7.109 0 0-4.738 7.11-4.738 7.11 0M510.629 321.73c0 4.739-7.113 4.739-7.113 0 0-4.742 7.113-4.742 7.113 0M510.629 305.602c0 4.742-7.113 4.742-7.113 0 0-4.739 7.113-4.739 7.113 0M510.629 289.477c0 4.742-7.113 4.742-7.113 0 0-4.743 7.113-4.743 7.113 0M510.629 273.352c0 4.738-7.113 4.738-7.113 0 0-4.743 7.113-4.743 7.113 0M510.629 257.223c0 4.742-7.113 4.742-7.113 0 0-4.739 7.113-4.739 7.113 0M510.629 241.098c0 4.738-7.113 4.738-7.113 0 0-4.743 7.113-4.743 7.113 0M510.629 224.969c0 4.742-7.113 4.742-7.113 0 0-4.739 7.113-4.739 7.113 0M510.629 208.844c0 4.738-7.113 4.738-7.113 0 0-4.742 7.113-4.742 7.113 0M510.629 192.715c0 4.742-7.113 4.742-7.113 0 0-4.738 7.113-4.738 7.113 0M510.629 176.59c0 4.738-7.113 4.738-7.113 0 0-4.742 7.113-4.742 7.113 0M510.629 160.46c0 4.743-7.113 4.743-7.113 0 0-4.737 7.113-4.737 7.113 0M510.629 144.336c0 4.738-7.113 4.738-7.113 0 0-4.742 7.113-4.742 7.113 0M510.629 128.207c0 4.742-7.113 4.742-7.113 0 0-4.738 7.113-4.738 7.113 0M510.629 112.082c0 4.738-7.113 4.738-7.113 0 0-4.742 7.113-4.742 7.113 0M510.629 95.953c0 4.742-7.113 4.742-7.113 0 0-4.738 7.113-4.738 7.113 0M510.629 79.828c0 4.738-7.113 4.738-7.113 0 0-4.742 7.113-4.742 7.113 0M510.629 63.7c0 4.741-7.113 4.741-7.113 0 0-4.74 7.113-4.74 7.113 0M510.629 47.574c0 4.742-7.113 4.742-7.113 0s7.113-4.742 7.113 0M510.629 31.45c0 4.738-7.113 4.738-7.113 0 0-4.743 7.113-4.743 7.113 0M510.629 15.32c0 4.742-7.113 4.742-7.113 0 0-4.738 7.113-4.738 7.113 0M521.313 321.73c0 4.739-7.11 4.739-7.11 0 0-4.742 7.11-4.742 7.11 0M521.313 305.602c0 4.742-7.11 4.742-7.11 0 0-4.739 7.11-4.739 7.11 0M521.313 289.477c0 4.742-7.11 4.742-7.11 0 0-4.743 7.11-4.743 7.11 0M521.313 273.352c0 4.738-7.11 4.738-7.11 0 0-4.743 7.11-4.743 7.11 0M521.313 257.223c0 4.742-7.11 4.742-7.11 0 0-4.739 7.11-4.739 7.11 0M521.313 241.098c0 4.738-7.11 4.738-7.11 0 0-4.743 7.11-4.743 7.11 0M521.313 224.969c0 4.742-7.11 4.742-7.11 0 0-4.739 7.11-4.739 7.11 0M521.313 208.844c0 4.738-7.11 4.738-7.11 0 0-4.742 7.11-4.742 7.11 0M521.313 192.715c0 4.742-7.11 4.742-7.11 0 0-4.738 7.11-4.738 7.11 0M521.313 176.59c0 4.738-7.11 4.738-7.11 0 0-4.742 7.11-4.742 7.11 0M521.313 160.46c0 4.743-7.11 4.743-7.11 0 0-4.737 7.11-4.737 7.11 0M521.313 144.336c0 4.738-7.11 4.738-7.11 0 0-4.742 7.11-4.742 7.11 0M521.313 128.207c0 4.742-7.11 4.742-7.11 0 0-4.738 7.11-4.738 7.11 0M521.313 112.082c0 4.738-7.11 4.738-7.11 0 0-4.742 7.11-4.742 7.11 0M521.313 95.953c0 4.742-7.11 4.742-7.11 0 0-4.738 7.11-4.738 7.11 0M521.313 79.828c0 4.738-7.11 4.738-7.11 0 0-4.742 7.11-4.742 7.11 0M521.313 63.7c0 4.741-7.11 4.741-7.11 0 0-4.74 7.11-4.74 7.11 0M521.313 47.574c0 4.742-7.11 4.742-7.11 0s7.11-4.742 7.11 0M521.313 31.45c0 4.738-7.11 4.738-7.11 0 0-4.743 7.11-4.743 7.11 0M521.313 15.32c0 4.742-7.11 4.742-7.11 0 0-4.738 7.11-4.738 7.11 0M532 321.73c0 4.739-7.11 4.739-7.11 0 0-4.742 7.11-4.742 7.11 0M532 305.602c0 4.742-7.11 4.742-7.11 0 0-4.739 7.11-4.739 7.11 0M532 289.477c0 4.742-7.11 4.742-7.11 0 0-4.743 7.11-4.743 7.11 0M532 273.352c0 4.738-7.11 4.738-7.11 0 0-4.743 7.11-4.743 7.11 0M532 257.223c0 4.742-7.11 4.742-7.11 0 0-4.739 7.11-4.739 7.11 0M532 241.098c0 4.738-7.11 4.738-7.11 0 0-4.743 7.11-4.743 7.11 0M532 224.969c0 4.742-7.11 4.742-7.11 0 0-4.739 7.11-4.739 7.11 0M532 208.844c0 4.738-7.11 4.738-7.11 0 0-4.742 7.11-4.742 7.11 0M532 192.715c0 4.742-7.11 4.742-7.11 0 0-4.738 7.11-4.738 7.11 0M532 176.59c0 4.738-7.11 4.738-7.11 0 0-4.742 7.11-4.742 7.11 0M532 160.46c0 4.743-7.11 4.743-7.11 0 0-4.737 7.11-4.737 7.11 0M532 144.336c0 4.738-7.11 4.738-7.11 0 0-4.742 7.11-4.742 7.11 0M532 128.207c0 4.742-7.11 4.742-7.11 0 0-4.738 7.11-4.738 7.11 0M532 112.082c0 4.738-7.11 4.738-7.11 0 0-4.742 7.11-4.742 7.11 0M532 95.953c0 4.742-7.11 4.742-7.11 0 0-4.738 7.11-4.738 7.11 0M532 79.828c0 4.738-7.11 4.738-7.11 0 0-4.742 7.11-4.742 7.11 0M532 63.7c0 4.741-7.11 4.741-7.11 0 0-4.74 7.11-4.74 7.11 0M532 47.574c0 4.742-7.11 4.742-7.11 0s7.11-4.742 7.11 0M532 31.45c0 4.738-7.11 4.738-7.11 0 0-4.743 7.11-4.743 7.11 0M532 15.32c0 4.742-7.11 4.742-7.11 0 0-4.738 7.11-4.738 7.11 0M542.688 321.73c0 4.739-7.11 4.739-7.11 0 0-4.742 7.11-4.742 7.11 0M542.688 305.602c0 4.742-7.11 4.742-7.11 0 0-4.739 7.11-4.739 7.11 0M542.688 289.477c0 4.742-7.11 4.742-7.11 0 0-4.743 7.11-4.743 7.11 0M542.688 273.352c0 4.738-7.11 4.738-7.11 0 0-4.743 7.11-4.743 7.11 0M542.688 257.223c0 4.742-7.11 4.742-7.11 0 0-4.739 7.11-4.739 7.11 0M542.688 241.098c0 4.738-7.11 4.738-7.11 0 0-4.743 7.11-4.743 7.11 0M542.688 224.969c0 4.742-7.11 4.742-7.11 0 0-4.739 7.11-4.739 7.11 0M542.688 208.844c0 4.738-7.11 4.738-7.11 0 0-4.742 7.11-4.742 7.11 0M542.688 192.715c0 4.742-7.11 4.742-7.11 0 0-4.738 7.11-4.738 7.11 0M542.688 176.59c0 4.738-7.11 4.738-7.11 0 0-4.742 7.11-4.742 7.11 0M542.688 160.46c0 4.743-7.11 4.743-7.11 0 0-4.737 7.11-4.737 7.11 0M542.688 144.336c0 4.738-7.11 4.738-7.11 0 0-4.742 7.11-4.742 7.11 0M542.688 128.207c0 4.742-7.11 4.742-7.11 0 0-4.738 7.11-4.738 7.11 0M542.688 112.082c0 4.738-7.11 4.738-7.11 0 0-4.742 7.11-4.742 7.11 0M542.688 95.953c0 4.742-7.11 4.742-7.11 0 0-4.738 7.11-4.738 7.11 0M542.688 79.828c0 4.738-7.11 4.738-7.11 0 0-4.742 7.11-4.742 7.11 0M542.688 63.7c0 4.741-7.11 4.741-7.11 0 0-4.74 7.11-4.74 7.11 0M542.688 47.574c0 4.742-7.11 4.742-7.11 0s7.11-4.742 7.11 0M542.688 31.45c0 4.738-7.11 4.738-7.11 0 0-4.743 7.11-4.743 7.11 0M542.688 15.32c0 4.742-7.11 4.742-7.11 0 0-4.738 7.11-4.738 7.11 0M553.375 321.73c0 4.739-7.113 4.739-7.113 0 0-4.742 7.113-4.742 7.113 0M553.375 305.602c0 4.742-7.113 4.742-7.113 0 0-4.739 7.113-4.739 7.113 0M553.375 289.477c0 4.742-7.113 4.742-7.113 0 0-4.743 7.113-4.743 7.113 0M553.375 273.352c0 4.738-7.113 4.738-7.113 0 0-4.743 7.113-4.743 7.113 0M553.375 257.223c0 4.742-7.113 4.742-7.113 0 0-4.739 7.113-4.739 7.113 0M553.375 241.098c0 4.738-7.113 4.738-7.113 0 0-4.743 7.113-4.743 7.113 0M553.375 224.969c0 4.742-7.113 4.742-7.113 0 0-4.739 7.113-4.739 7.113 0M553.375 208.844c0 4.738-7.113 4.738-7.113 0 0-4.742 7.113-4.742 7.113 0M553.375 192.715c0 4.742-7.113 4.742-7.113 0 0-4.738 7.113-4.738 7.113 0M553.375 176.59c0 4.738-7.113 4.738-7.113 0 0-4.742 7.113-4.742 7.113 0M553.375 160.46c0 4.743-7.113 4.743-7.113 0 0-4.737 7.113-4.737 7.113 0M553.375 144.336c0 4.738-7.113 4.738-7.113 0 0-4.742 7.113-4.742 7.113 0M553.375 128.207c0 4.742-7.113 4.742-7.113 0 0-4.738 7.113-4.738 7.113 0M553.375 112.082c0 4.738-7.113 4.738-7.113 0 0-4.742 7.113-4.742 7.113 0M553.375 95.953c0 4.742-7.113 4.742-7.113 0 0-4.738 7.113-4.738 7.113 0M553.375 79.828c0 4.738-7.113 4.738-7.113 0 0-4.742 7.113-4.742 7.113 0M553.375 63.7c0 4.741-7.113 4.741-7.113 0 0-4.74 7.113-4.74 7.113 0M553.375 47.574c0 4.742-7.113 4.742-7.113 0s7.113-4.742 7.113 0M553.375 31.45c0 4.738-7.113 4.738-7.113 0 0-4.743 7.113-4.743 7.113 0M553.375 15.32c0 4.742-7.113 4.742-7.113 0 0-4.738 7.113-4.738 7.113 0" fill="#00ba58" stroke-width=".709" stroke-linecap="round" stroke-linejoin="round" stroke="#00ba58" stroke-miterlimit="10"/><use xlink:href="#a" x="216.262" y="355.297"/><use xlink:href="#b" x="224.206" y="355.297"/><use xlink:href="#c" x="230.323" y="355.297"/><use xlink:href="#d" x="235.823" y="355.297"/><use xlink:href="#e" x="238.879" y="355.297"/><use xlink:href="#f" x="241.323" y="355.297"/><use xlink:href="#f" x="243.767" y="355.297"/><use xlink:href="#g" x="246.211" y="355.297"/><use xlink:href="#h" x="252.329" y="355.297"/><use xlink:href="#c" x="258.446" y="355.297"/><use xlink:href="#c" x="263.946" y="355.297"/><use xlink:href="#i" x="269.446" y="355.297"/><path d="M291.938 351.36c0 4.742-7.114 4.742-7.114 0 0-4.739 7.113-4.739 7.113 0" fill="#00ba58" stroke-width=".709" stroke-linecap="round" stroke-linejoin="round" stroke="#00ba58" stroke-miterlimit="10"/><path d="M332.176 351.36c0 4.742-7.113 4.742-7.113 0 0-4.739 7.113-4.739 7.113 0" fill="#f8766d" stroke-width=".709" stroke-linecap="round" stroke-linejoin="round" stroke="#f8766d" stroke-miterlimit="10"/><g><use xlink:href="#j" x="302.5" y="354.508"/><use xlink:href="#k" x="308.855" y="354.508"/></g><g><use xlink:href="#l" x="342.738" y="354.508"/><use xlink:href="#m" x="348.608" y="354.508"/><use xlink:href="#n" x="353.502" y="354.508"/></g></svg>